<?xml version="1.0" standalone="no"?>
<!DOCTYPE svg PUBLIC "-//W3C//DTD SVG 20010904//EN"
 "http://www.w3.org/TR/2001/REC-SVG-20010904/DTD/svg10.dtd">
<svg version="1.0" xmlns="http://www.w3.org/2000/svg"
 width="512.000000pt" height="512.000000pt" viewBox="0 0 512.000000 512.000000"
 preserveAspectRatio="xMidYMid meet">

<g transform="translate(0.000000,512.000000) scale(0.100000,-0.100000)"
fill="#000000" stroke="none">
<path d="M2131 4488 c-36 -5 -92 -20 -126 -33 -34 -14 -77 -25 -96 -25 -51 0
-145 -27 -203 -58 -28 -15 -82 -57 -119 -94 -52 -51 -76 -85 -106 -150 -48
-103 -61 -160 -73 -318 -25 -345 -19 -438 39 -575 35 -84 39 -99 57 -194 17
-94 52 -174 96 -221 17 -18 28 -36 25 -40 -3 -5 -56 -25 -118 -45 -129 -43
-154 -54 -183 -87 -30 -32 -37 -60 -23 -94 7 -18 12 -112 14 -239 2 -142 9
-253 22 -342 19 -130 19 -132 0 -137 -17 -4 -210 31 -275 50 -18 5 -24 2 -29
-14 -5 -19 -12 -15 -67 42 -48 50 -70 66 -101 71 -28 5 -49 18 -68 41 -22 26
-46 38 -115 59 -98 30 -111 39 -157 110 -18 28 -44 61 -59 74 -30 28 -79 32
-103 9 -24 -24 -28 -98 -8 -157 18 -55 89 -142 136 -167 40 -20 44 -51 19
-136 -12 -40 -30 -102 -39 -138 -13 -48 -36 -90 -86 -160 -75 -105 -127 -208
-150 -296 -19 -72 -19 -184 -1 -227 11 -28 22 -35 75 -51 59 -18 63 -18 81 -1
11 10 20 24 20 31 0 8 15 34 33 58 17 24 51 71 74 104 32 46 56 68 102 92 61
33 86 59 133 140 15 25 51 69 81 98 50 50 56 53 78 42 39 -20 58 -41 52 -56
-6 -17 13 -19 21 -1 3 8 11 5 25 -11 l20 -22 24 32 c33 44 48 74 40 82 -10 10
-32 -14 -27 -29 3 -7 0 -16 -7 -21 -8 -5 -10 -3 -4 7 8 12 6 12 -8 0 -15 -12
-20 -12 -35 0 -9 8 -34 23 -55 33 l-37 19 22 24 c12 12 19 25 16 28 -23 23
-179 -115 -235 -209 -50 -84 -60 -94 -126 -127 -57 -29 -71 -45 -170 -188 -32
-46 -47 -45 -47 2 1 54 36 113 117 196 l78 79 -13 43 c-8 26 -12 74 -9 119 4
86 32 149 100 226 40 46 39 56 -3 27 -35 -24 -66 -60 -97 -112 -32 -52 -44
-175 -22 -226 7 -16 13 -34 14 -40 1 -5 -34 -47 -77 -91 -43 -45 -87 -101 -98
-125 -23 -52 -27 -141 -6 -158 14 -12 11 -51 -4 -51 -5 0 -18 12 -29 26 -46
59 -20 161 79 306 41 60 58 94 52 100 -16 16 -27 4 -96 -100 -71 -106 -104
-204 -91 -270 5 -25 3 -32 -6 -27 -8 5 -10 31 -7 80 4 60 12 88 47 156 22 46
62 112 88 147 l47 62 19 -30 c10 -16 28 -30 38 -30 20 0 26 15 9 25 -6 4 -23
32 -39 63 -24 47 -30 54 -36 37 -8 -24 -11 -30 -55 -89 -19 -26 -52 -74 -72
-108 -21 -34 -38 -59 -38 -55 0 37 168 299 206 320 8 4 14 16 14 25 0 9 14 70
32 135 21 80 36 117 46 117 10 0 12 6 7 18 -24 56 -27 91 -11 114 21 30 20 41
-3 28 -11 -5 -34 -10 -51 -10 -80 0 -182 203 -125 250 28 23 60 2 114 -74 56
-79 76 -93 173 -121 67 -19 115 -52 99 -68 -20 -20 -11 -27 34 -27 61 0 87
-15 169 -99 38 -39 73 -71 78 -71 5 0 20 -24 33 -52 23 -50 25 -64 25 -225 0
-158 -2 -173 -17 -174 -11 0 -13 -3 -5 -6 6 -2 12 -9 12 -13 0 -5 -16 -2 -36
6 -36 15 -37 15 -30 -8 9 -33 25 -106 31 -150 8 -55 26 -60 139 -41 86 14 117
15 266 3 188 -14 260 -10 324 21 51 24 79 51 106 105 l20 39 -6 -155 c-3 -85
-7 -167 -9 -182 -5 -33 22 -68 97 -126 89 -68 230 -128 369 -156 8 -2 21 -6
29 -9 75 -30 529 -49 670 -28 120 18 230 43 225 51 -3 5 4 6 14 3 28 -7 123
22 222 69 l87 41 20 156 c41 300 45 362 39 541 -6 167 -5 174 11 150 9 -13 54
-68 98 -120 136 -160 249 -232 401 -255 62 -10 143 10 186 46 72 59 96 138
103 339 5 138 -7 257 -31 313 -5 13 23 2 97 -38 118 -62 144 -67 158 -29 9 24
11 24 32 10 12 -9 32 -16 43 -16 28 0 65 27 65 48 0 9 14 25 31 34 28 16 30
22 29 70 0 29 2 67 6 85 14 71 -28 136 -142 214 -61 43 -84 67 -138 147 -35
54 -94 126 -130 161 -59 56 -66 67 -61 91 5 23 13 29 43 35 86 16 122 60 122
150 0 84 -35 135 -92 135 -39 0 -64 -26 -87 -90 -30 -82 -48 -92 -183 -101
-99 -7 -118 -11 -184 -43 -68 -34 -97 -59 -135 -116 l-16 -24 -50 86 c-27 46
-70 111 -94 143 -24 32 -51 67 -60 79 -9 12 -21 52 -27 90 -15 96 -27 106
-121 106 -84 0 -143 -12 -315 -65 -65 -19 -119 -35 -122 -35 -12 0 -1 89 19
157 19 69 22 100 21 258 -1 160 -3 191 -26 276 -29 108 -77 210 -119 254 -15
17 -45 63 -65 104 -45 90 -140 189 -234 244 -155 90 -370 125 -579 95z m163
-358 c17 -6 28 -21 35 -45 14 -52 7 -64 -37 -58 -34 4 -41 0 -80 -41 -51 -53
-85 -61 -125 -29 -38 31 -69 29 -107 -7 -69 -64 -81 -28 -40 113 15 51 28 57
75 33 30 -16 50 -10 99 26 22 17 144 22 180 8z m-307 -6 c-3 -3 -12 -4 -19 -1
-8 3 -5 6 6 6 11 1 17 -2 13 -5z m-91 -21 c-3 -10 -8 -40 -12 -68 -3 -27 -11
-56 -16 -62 -6 -7 -8 -13 -5 -13 3 0 2 -12 -4 -27 -9 -27 -12 -28 -67 -26 -47
2 -109 7 -144 12 -5 1 -8 10 -8 21 0 11 -4 20 -10 20 -5 0 -10 9 -10 20 0 12
7 20 16 20 8 0 22 6 30 14 7 8 23 12 34 9 14 -4 33 7 64 35 25 23 57 44 73 48
15 3 33 7 38 9 21 7 26 4 21 -12z m510 -9 c13 -14 24 -33 25 -42 0 -14 2 -13
9 3 7 16 9 17 9 3 1 -9 -6 -23 -14 -32 -8 -8 -15 -19 -15 -25 0 -17 -18 -13
-40 9 -26 26 -28 110 -2 110 3 0 15 -11 28 -26z m156 -490 c28 -41 121 -122
172 -151 12 -6 22 -60 41 -208 28 -218 37 -245 85 -245 27 0 30 -3 30 -30 0
-50 -68 -104 -84 -67 -3 6 -4 -1 -3 -18 2 -26 6 -30 27 -27 56 5 109 97 81
141 -6 10 4 26 37 57 52 49 58 51 84 27 27 -25 22 -54 -23 -124 -89 -139 -173
-199 -246 -175 -20 6 -23 4 -23 -17 0 -38 -67 -175 -153 -312 -83 -134 -252
-322 -322 -358 -45 -23 -96 -30 -130 -17 -58 22 -191 148 -246 232 -43 67
-130 272 -173 408 -43 139 -66 246 -106 507 -16 109 -32 208 -35 220 -5 21 -3
22 20 11 21 -9 25 -18 26 -52 0 -58 12 -117 23 -117 5 0 17 19 25 42 15 39 20
44 66 56 73 19 82 17 57 -9 -24 -26 -61 -105 -62 -130 0 -25 17 -22 31 5 7 12
23 36 36 54 22 28 28 31 50 22 29 -11 45 -3 23 11 -24 15 -62 12 -84 -7 -11
-10 -5 2 13 29 19 26 44 49 58 53 14 3 26 5 28 3 1 -2 9 -88 18 -193 16 -187
47 -339 76 -368 9 -9 9 -4 1 18 -12 37 -58 379 -67 495 l-6 86 59 13 c33 7 67
17 76 22 9 5 19 6 21 2 3 -5 -1 -60 -9 -123 -15 -129 -18 -298 -5 -318 4 -7
11 65 14 165 8 200 17 290 27 273 5 -8 37 -6 118 10 120 22 154 19 250 -22 56
-23 56 -23 48 12 -8 41 -57 112 -90 129 -20 11 -23 17 -14 28 8 10 28 13 69
10 57 -4 60 -6 91 -53z m511 -435 c3 -12 3 -35 0 -51 l-6 -29 -19 21 c-10 11
-23 20 -29 20 -5 0 -3 14 6 30 18 35 40 39 48 9z m257 -53 c0 -2 -7 -6 -15
-10 -8 -3 -15 -1 -15 4 0 6 7 10 15 10 8 0 15 -2 15 -4z m-70 -24 c0 -4 -10
-9 -22 -9 -18 -2 -20 0 -8 7 18 12 30 13 30 2z m-1653 -87 c4 -1 41 -180 38
-183 -1 -2 -17 16 -34 40 -32 43 -63 116 -76 178 l-7 35 38 -35 c21 -19 40
-35 41 -35z m2943 3 c11 -18 20 -50 20 -71 0 -72 -37 -111 -114 -119 -16 -2
-32 -10 -36 -18 -4 -8 -16 -34 -27 -57 -22 -44 -20 -53 7 -53 35 0 200 -191
230 -267 9 -21 37 -44 150 -126 51 -37 90 -90 89 -121 0 -20 -1 -20 -17 4 -30
45 -72 79 -121 97 -36 14 -64 37 -119 100 -40 46 -82 87 -92 93 -11 6 -20 21
-20 35 0 30 -10 55 -21 55 -5 0 -9 -35 -9 -77 0 -61 -7 -97 -30 -162 -29 -83
-31 -116 -4 -76 44 65 35 66 115 -12 41 -39 104 -88 141 -108 88 -48 118 -83
118 -140 0 -35 -4 -45 -20 -50 -21 -7 -90 38 -90 59 0 28 -65 87 -128 117 -37
18 -71 38 -75 46 -5 8 -36 28 -69 43 -88 42 -98 53 -87 101 11 46 0 97 -31
147 l-20 33 27 36 c25 32 28 45 28 109 0 64 -3 76 -24 96 -13 13 -21 19 -19
13 2 -5 12 -26 21 -47 15 -32 15 -41 2 -85 -8 -26 -25 -63 -38 -82 l-23 -34
23 -45 c27 -54 31 -151 8 -196 -17 -32 -13 -45 8 -27 11 9 17 8 26 -3 7 -8 41
-28 77 -45 35 -16 64 -36 64 -44 0 -8 25 -24 60 -36 35 -13 77 -38 100 -60 34
-32 40 -44 40 -79 0 -23 -3 -42 -6 -42 -4 0 -68 33 -143 73 -75 40 -152 80
-171 87 -19 8 -98 42 -174 77 -77 34 -142 60 -145 57 -6 -6 3 -12 79 -54 42
-23 45 -28 45 -65 l0 -40 -63 0 c-35 0 -66 3 -68 7 -3 4 -23 12 -44 18 -53 14
-68 41 -62 112 3 52 6 57 22 48 33 -18 41 -11 21 18 -30 41 -54 138 -47 184 7
42 38 112 64 141 25 28 7 30 -27 2 l-31 -27 0 46 c0 147 121 239 334 253 127
8 156 24 191 108 40 92 71 108 105 53z m-1670 -350 c-6 -61 -23 -149 -40 -206
-35 -119 -100 -264 -108 -242 -3 8 -21 34 -40 58 -24 29 -40 41 -52 37 -9 -3
-23 2 -30 10 -9 11 -22 14 -42 10 l-29 -7 18 29 c10 15 37 57 61 92 23 35 69
117 103 183 33 66 65 116 70 112 9 -5 5 -85 -8 -139 -3 -11 -6 -28 -6 -37 -1
-9 -3 -15 -6 -12 -3 2 -11 -10 -18 -28 -9 -20 -10 -35 -4 -41 18 -18 71 156
71 231 0 14 11 29 32 42 18 10 33 18 35 16 2 -1 -2 -50 -7 -108z m-1498 -28
l-32 -29 17 -34 c17 -30 17 -46 9 -157 -6 -94 -5 -166 8 -304 9 -100 16 -194
16 -210 0 -59 -14 -13 -31 107 -24 163 -32 333 -21 437 7 68 6 89 -6 110 -20
34 -10 71 25 92 43 27 51 21 15 -12z m3329 -386 c69 -21 135 -99 149 -175 10
-53 -5 -71 -23 -28 -18 44 -74 93 -143 126 -30 14 -73 46 -97 72 -23 26 -57
58 -75 71 -28 21 -32 29 -27 55 14 68 12 68 96 -23 61 -66 89 -89 120 -98z
m-2031 24 c0 -5 -6 -6 -12 -2 -7 4 -5 -2 6 -14 10 -12 23 -19 29 -15 5 3 7 1
3 -5 -3 -5 -2 -12 3 -14 26 -10 18 -46 -22 -102 -23 -33 -47 -61 -53 -63 -7
-2 -23 19 -38 48 -28 57 -29 53 31 157 20 34 28 40 39 31 8 -6 14 -16 14 -21z
m-208 -80 c13 -20 13 -27 1 -58 -8 -19 -24 -50 -35 -68 l-21 -34 -38 38 -39
38 52 53 c29 29 55 53 59 53 4 0 13 -10 21 -22z m398 -22 c0 -2 -7 -9 -15 -16
-13 -11 -14 -10 -9 4 5 14 24 23 24 12z m-1080 -175 c23 -51 48 -114 57 -140
8 -25 40 -98 71 -161 l56 -115 0 -270 c1 -252 -5 -345 -22 -345 -4 0 -7 138
-8 307 l0 308 -46 95 c-25 52 -51 113 -58 135 -7 22 -37 102 -66 178 -30 76
-54 143 -53 150 0 13 8 -2 69 -142z m2431 99 c23 -13 25 -36 3 -44 -28 -11
-34 -7 -34 24 0 33 3 35 31 20z m-219 -40 c5 -15 101 -31 109 -18 4 7 9 6 13
-1 4 -6 28 -11 52 -11 35 0 50 5 64 23 26 32 33 17 25 -57 -8 -73 -22 -90 -19
-23 l2 42 -6 -40 c-6 -35 -10 -40 -32 -38 -37 4 -182 78 -209 107 -14 14 -20
26 -14 26 6 0 13 -4 15 -10z m-212 -170 c-4 -30 -8 -98 -9 -150 l-2 -95 60
-71 c62 -72 173 -168 246 -212 37 -22 38 -23 10 -17 -59 13 -141 70 -229 159
-94 96 -116 132 -116 194 0 38 25 197 36 235 10 33 12 13 4 -43z m-2553 -67
c76 -14 89 -14 150 0 86 20 207 32 230 22 12 -5 -15 -13 -82 -25 -55 -10 -126
-23 -158 -30 -49 -11 -70 -11 -142 4 -118 23 -115 23 -100 -21 16 -49 26 -93
22 -93 -2 0 -17 30 -32 68 -15 37 -37 75 -49 86 -21 19 -21 19 29 12 28 -4 87
-14 132 -23z m2390 -240 c-2 -16 -4 -5 -4 22 0 28 2 40 4 28 2 -13 2 -35 0
-50z m-2470 -175 c-3 -8 -6 -5 -6 6 -1 11 2 17 5 13 3 -3 4 -12 1 -19z m231
-215 c-10 -2 -26 -2 -35 0 -10 3 -2 5 17 5 19 0 27 -2 18 -5z m290 -20 c-10
-2 -28 -2 -40 0 -13 2 -5 4 17 4 22 1 32 -1 23 -4z m712 -33 c0 -5 -5 -10 -11
-10 -5 0 -7 5 -4 10 3 6 8 10 11 10 2 0 4 -4 4 -10z m127 -182 c-3 -8 -6 -5
-6 6 -1 11 2 17 5 13 3 -3 4 -12 1 -19z"/>
<path d="M2167 3473 c10 -4 10 -10 -2 -26 -8 -12 -15 -31 -15 -42 1 -20 1 -20
12 0 31 56 35 57 100 24 33 -17 58 -32 56 -35 -3 -2 -23 6 -45 18 -22 12 -47
19 -56 15 -22 -8 -57 -66 -57 -92 1 -13 9 -4 23 25 26 53 40 54 106 9 43 -30
65 -33 42 -5 -7 8 -10 19 -7 24 14 24 -98 93 -148 91 -11 0 -15 -3 -9 -6z"/>
<path d="M2236 3351 c-9 -14 4 -41 19 -41 15 0 28 27 19 41 -3 5 -11 9 -19 9
-8 0 -16 -4 -19 -9z"/>
<path d="M1824 3275 c-9 -22 22 -53 37 -38 15 15 7 47 -14 51 -9 2 -20 -4 -23
-13z"/>
<path d="M2204 3236 c11 -9 27 -16 35 -15 14 0 14 1 1 6 -8 3 -24 10 -35 15
-20 9 -20 9 -1 -6z"/>
<path d="M1854 3198 l-19 -23 23 19 c21 18 27 26 19 26 -2 0 -12 -10 -23 -22z"/>
<path d="M1863 3168 c-25 -33 -25 -40 1 -23 26 17 35 35 17 35 -5 0 -13 -6
-18 -12z"/>
<path d="M2196 3025 c-37 -13 -55 -29 -56 -48 0 -5 12 1 26 12 48 38 74 24 74
-38 0 -24 -7 -31 -46 -46 -26 -10 -82 -42 -124 -71 l-78 -53 -32 41 c-27 33
-37 39 -61 36 -24 -4 -29 -1 -29 16 0 12 7 34 15 50 19 35 19 37 0 30 -19 -8
-38 -69 -31 -100 5 -17 13 -24 30 -24 15 0 41 -17 69 -43 l44 -43 39 33 c61
51 171 106 200 99 21 -6 24 -3 25 21 2 50 -3 88 -13 108 -9 17 -7 16 16 -4 33
-31 43 -23 15 12 -23 31 -29 31 -83 12z"/>
<path d="M2048 2644 c-12 -12 -20 -13 -35 -5 -17 9 -22 5 -37 -26 -9 -19 -14
-38 -11 -41 3 -3 5 0 5 6 0 26 17 10 31 -30 15 -41 39 -63 39 -36 0 7 11 23
24 36 14 12 33 38 44 56 l20 34 -24 11 c-32 14 -37 14 -56 -5z m42 -25 c0 -18
-52 -79 -62 -73 -12 8 -1 41 25 70 19 22 37 24 37 3z"/>
<path d="M2068 2455 c-27 -41 -31 -42 -58 -13 -11 12 -22 19 -25 16 -10 -10
17 -56 36 -61 19 -5 59 26 59 45 0 6 7 20 17 30 9 10 11 18 5 18 -7 0 -22 -16
-34 -35z"/>
<path d="M2720 2447 c-8 -12 -14 -24 -15 -27 0 -4 -77 -76 -94 -87 -3 -2 0 -8
6 -14 7 -7 20 -1 42 18 45 38 95 113 84 124 -5 5 -15 -1 -23 -14z m-49 -90
c-10 -9 -11 -8 -5 6 3 10 9 15 12 12 3 -3 0 -11 -7 -18z"/>
<path d="M932 4476 c-96 -31 -152 -99 -152 -183 0 -54 46 -142 87 -166 31 -17
34 -17 68 -1 53 25 76 60 73 108 -2 31 1 41 12 41 25 0 23 -34 -4 -95 -36 -79
-34 -124 5 -161 18 -16 28 -33 23 -40 -26 -42 11 -115 62 -125 73 -14 111 46
75 118 -13 28 -17 46 -11 52 6 6 10 19 10 30 0 11 19 50 41 88 40 65 41 71 37
138 -3 57 -9 77 -33 112 -57 81 -187 118 -293 84z m195 -37 c50 -24 91 -85 94
-140 2 -27 -5 -45 -32 -79 -34 -42 -140 -120 -165 -120 -16 0 -6 37 25 97 11
23 21 52 21 64 0 31 -28 59 -60 59 -39 0 -54 -22 -46 -70 6 -36 3 -44 -20 -65
-47 -44 -81 -31 -119 45 -39 75 -11 171 59 204 84 40 167 42 243 5z m-7 -453
c0 -15 -32 -76 -40 -76 -16 0 -23 49 -10 65 11 13 50 22 50 11z"/>
<path d="M3540 4403 c-64 -22 -134 -76 -164 -127 -14 -25 -33 -75 -42 -113
-40 -171 46 -259 218 -224 61 13 95 38 104 79 15 62 60 79 108 41 53 -42 22
-81 -120 -152 -138 -69 -184 -116 -184 -188 0 -25 10 -42 43 -73 l42 -41 -38
4 c-67 6 -127 -57 -127 -135 0 -69 60 -124 134 -124 51 0 81 17 105 60 30 54
28 110 -6 151 -24 28 -25 31 -6 21 43 -23 87 -14 159 33 41 27 102 56 150 71
128 39 182 83 241 199 38 74 37 181 -1 260 -76 154 -293 276 -490 275 -46 -1
-100 -8 -126 -17z m234 -19 c155 -39 301 -144 347 -246 34 -77 32 -165 -5
-238 -31 -61 -78 -115 -116 -134 -39 -21 -213 -40 -293 -32 -73 6 -145 26
-179 50 -18 13 -18 15 12 39 17 15 73 46 124 71 111 53 146 86 146 137 0 47
-34 80 -92 86 -36 4 -47 1 -70 -21 -16 -14 -28 -36 -28 -49 0 -33 -28 -55 -81
-65 -71 -13 -134 -4 -160 24 -45 48 -35 180 21 268 68 107 216 151 374 110z
m-240 -804 c36 -13 66 -46 66 -73 0 -18 -11 -26 -62 -45 -81 -28 -124 -29
-133 -2 -9 30 13 87 42 110 28 22 49 25 87 10z"/>
<path d="M605 3849 c-83 -20 -188 -81 -261 -154 -111 -110 -151 -221 -121
-336 37 -143 191 -282 314 -284 60 0 91 23 128 95 45 91 40 158 -15 199 -38
27 -39 62 -4 90 36 28 65 26 95 -5 23 -24 24 -34 30 -177 6 -169 13 -192 75
-247 34 -29 42 -32 89 -28 36 3 69 15 112 41 79 48 89 71 72 172 -10 66 -10
90 6 180 17 102 17 104 -4 173 -39 129 -147 242 -266 278 -53 16 -188 17 -250
3z m277 -42 c61 -30 145 -112 176 -173 39 -76 46 -117 33 -185 -14 -68 -69
-194 -109 -249 -36 -48 -117 -130 -130 -130 -6 0 -21 21 -33 47 -20 42 -23 65
-25 178 -1 71 -6 142 -12 156 -29 71 -120 92 -173 40 -43 -43 -40 -82 12 -138
37 -40 40 -48 34 -81 -8 -45 -42 -117 -66 -138 -22 -20 -84 -20 -129 -2 -19 8
-62 38 -95 66 -113 94 -151 222 -104 347 17 46 38 76 93 131 115 116 234 166
382 161 74 -2 100 -8 146 -30z"/>
<path d="M4226 3726 c-58 -22 -108 -66 -135 -120 -29 -58 -22 -89 28 -123 42
-28 90 -29 121 -3 26 22 44 14 38 -16 -3 -17 -16 -20 -100 -24 -111 -6 -146
-23 -163 -81 -8 -26 -15 -33 -30 -31 -29 4 -84 -34 -96 -65 -34 -90 62 -151
130 -82 17 17 31 34 31 38 0 9 137 7 206 -4 41 -6 59 -4 95 12 103 46 152 121
152 232 0 178 -143 316 -277 267z m129 -37 c70 -48 124 -171 111 -253 -8 -48
-49 -121 -76 -136 -51 -27 -225 4 -302 55 -21 14 -38 27 -38 30 0 2 14 12 31
20 24 13 45 15 93 10 98 -11 150 26 127 88 -14 36 -47 44 -82 18 -34 -25 -41
-26 -85 -5 -27 13 -34 22 -34 46 0 35 48 101 94 129 43 26 121 25 161 -2z
m-345 -424 c0 -23 -4 -25 -50 -25 -54 0 -65 14 -32 42 39 34 82 25 82 -17z"/>
<path d="M1064 3040 c-11 -4 -33 -22 -47 -40 -50 -59 -27 -144 52 -197 58 -39
145 -24 190 33 43 55 6 160 -69 199 -31 16 -92 19 -126 5z m101 -27 c12 -12
15 -25 10 -52 -7 -41 -55 -141 -67 -141 -17 0 -86 72 -93 97 -8 35 12 81 44
98 35 19 86 19 106 -2z"/>
<path d="M620 2809 c-88 -37 -142 -173 -97 -243 22 -32 65 -55 121 -62 36 -5
47 -3 65 15 11 11 21 30 21 42 l0 20 26 -20 c15 -12 40 -21 56 -21 17 0 41 -9
55 -20 14 -11 36 -20 49 -20 23 0 64 42 64 66 0 22 -38 54 -64 54 -20 0 -31
13 -63 77 -21 42 -50 86 -65 97 -32 23 -129 32 -168 15z m124 -56 c9 -26 16
-69 16 -97 l0 -51 -23 39 c-28 50 -51 65 -74 50 -29 -18 -28 -52 1 -66 34 -15
37 -65 4 -77 -33 -12 -96 8 -119 38 -59 74 30 211 138 211 40 0 42 -1 57 -47z
m-49 -103 c3 -5 1 -10 -4 -10 -6 0 -11 5 -11 10 0 6 2 10 4 10 3 0 8 -4 11
-10z"/>
<path d="M957 1423 c-26 -25 15 -59 93 -78 19 -5 16 0 -13 17 -25 15 -36 27
-32 38 4 11 1 10 -9 -2 -7 -10 -16 -18 -18 -18 -12 0 -15 39 -4 44 7 3 7 5 0
5 -6 1 -14 -2 -17 -6z"/>
</g>
</svg>
