<?xml version="1.0" standalone="no"?>
<!DOCTYPE svg PUBLIC "-//W3C//DTD SVG 20010904//EN"
 "http://www.w3.org/TR/2001/REC-SVG-20010904/DTD/svg10.dtd">
<svg version="1.0" xmlns="http://www.w3.org/2000/svg"
 width="512.000000pt" height="512.000000pt" viewBox="0 0 512.000000 512.000000"
 preserveAspectRatio="xMidYMid meet">

<g transform="translate(0.000000,512.000000) scale(0.100000,-0.100000)"
fill="#000000" stroke="none">
<path d="M2354 4900 c-311 -44 -719 -237 -928 -439 -91 -88 -144 -162 -197
-275 -21 -44 -54 -97 -74 -116 -44 -43 -120 -170 -154 -259 -37 -97 -35 -234
3 -346 15 -44 40 -100 55 -126 22 -34 33 -75 49 -170 12 -69 31 -152 43 -185
15 -39 22 -77 20 -114 -1 -30 7 -91 19 -135 19 -76 116 -293 144 -325 8 -8 22
-64 32 -123 14 -88 15 -112 4 -131 -21 -41 -4 -101 46 -157 24 -27 44 -57 44
-67 2 -77 26 -143 64 -177 13 -11 33 -49 46 -85 68 -189 179 -343 302 -418 33
-21 36 -26 27 -49 -39 -102 -132 -174 -449 -347 -131 -71 -142 -79 -134 -100
8 -21 20 -20 52 3 15 10 99 57 187 105 233 127 347 222 384 319 10 24 41 39
41 19 0 -14 -74 -131 -101 -160 -15 -15 -53 -48 -85 -72 -33 -24 -65 -51 -71
-59 -7 -8 -13 -11 -13 -7 0 4 -26 -7 -58 -25 -31 -17 -91 -50 -132 -71 -41
-22 -96 -54 -122 -70 -57 -36 -57 -36 34 -133 63 -67 179 -151 273 -198 144
-71 411 -152 533 -161 29 -2 56 -7 59 -10 4 -3 17 -6 29 -6 23 0 23 0 -10 73
-18 39 -45 107 -60 149 l-27 78 20 45 c11 25 18 54 16 65 -2 13 2 20 11 20 8
0 14 -6 14 -14 0 -7 27 -48 61 -91 33 -42 71 -92 84 -112 l24 -34 -33 -93 -34
-93 106 -7 c129 -7 232 -8 232 0 0 3 -32 59 -71 125 l-71 120 21 52 c12 29 37
79 56 111 l35 57 -27 36 c-24 32 -25 34 -6 23 12 -8 19 -18 17 -22 -3 -4 -1
-8 5 -8 5 0 14 -15 21 -34 6 -18 19 -41 28 -50 10 -8 36 -43 58 -76 22 -34 45
-59 53 -58 8 2 13 8 10 13 -2 6 -8 9 -13 7 -5 -2 -6 5 -2 14 4 11 2 15 -8 11
-10 -4 -13 -1 -10 8 8 21 -35 78 -54 70 -11 -4 -12 -2 -4 8 8 9 -4 29 -50 80
-33 37 -67 67 -77 67 -9 1 4 8 29 16 57 20 113 61 104 77 -4 7 -4 9 1 5 10
-10 37 11 29 23 -3 5 -1 9 4 9 4 0 19 15 32 32 14 19 16 27 7 19 -15 -12 -17
-11 -17 3 0 9 6 16 14 16 17 0 48 39 40 52 -3 4 0 8 7 8 8 0 8 4 -1 15 -11 13
-10 14 5 9 15 -6 17 -3 13 14 -4 12 -3 20 2 17 12 -7 19 30 8 48 -7 13 -5 15
6 11 10 -4 18 9 30 49 15 52 14 87 -4 87 -4 0 -10 -10 -14 -22 -9 -37 -7 -43
9 -22 13 17 13 16 3 -13 -7 -18 -15 -28 -19 -22 -3 6 -12 -11 -18 -38 -7 -26
-20 -65 -29 -86 -8 -21 -15 -44 -15 -52 0 -8 -4 -12 -8 -9 -5 2 -16 -13 -26
-34 -27 -59 -99 -131 -157 -157 -48 -22 -57 -23 -141 -13 -49 6 -102 11 -117
12 -14 0 -24 4 -21 9 2 4 0 7 -6 7 -22 0 -77 59 -127 137 -30 46 -54 86 -54
88 0 3 11 5 25 5 14 0 25 4 25 8 0 4 -41 31 -90 60 -49 29 -90 57 -90 62 0 6
18 10 40 10 46 0 121 23 169 53 40 24 26 34 -22 17 -48 -18 -203 -38 -251 -33
-144 16 -306 176 -385 383 -17 44 -31 82 -31 84 0 12 82 27 93 17 7 -5 28 -12
47 -16 42 -7 123 29 128 58 3 17 1 17 -37 -2 -48 -25 -76 -26 -116 -5 -24 12
-37 13 -76 4 -55 -13 -73 -7 -114 42 -24 28 -27 38 -22 79 4 31 2 49 -5 51 -8
3 -9 11 -3 24 7 17 8 17 12 1 6 -22 9 -21 41 4 l27 21 22 -26 c12 -15 20 -33
17 -41 -8 -21 2 -19 44 10 48 33 67 32 132 -9 30 -19 57 -32 60 -29 3 3 -17
25 -45 50 -49 44 -51 45 -107 40 -32 -3 -58 -1 -58 4 0 5 -11 16 -24 25 -23
15 -27 14 -61 -9 -22 -15 -44 -23 -57 -19 -34 9 -87 69 -94 108 -8 44 3 54 68
54 37 0 55 -6 90 -33 40 -31 46 -32 73 -21 17 7 42 13 56 14 66 1 165 -73 217
-161 12 -19 31 -44 42 -54 43 -39 -41 123 -90 175 -84 87 -142 107 -215 76
-27 -11 -34 -10 -77 17 -30 19 -66 32 -96 35 l-49 4 -26 172 c-38 247 -48 326
-46 387 1 30 -5 92 -14 139 -16 89 -42 348 -36 355 2 2 29 -3 59 -11 30 -8 79
-14 110 -14 l55 -1 -37 -30 c-52 -42 -114 -129 -100 -138 12 -7 10 -15 -23
-113 -11 -31 -11 -39 1 -49 31 -26 54 15 54 98 0 52 35 108 96 154 61 47 92
51 157 24 25 -10 35 -20 31 -30 -5 -11 -13 -13 -28 -8 -40 15 -103 9 -127 -12
-51 -46 -65 -144 -28 -204 14 -23 18 -42 14 -63 -6 -27 -9 -29 -38 -22 -18 3
-44 13 -59 20 -33 17 -38 17 -38 3 0 -20 54 -59 83 -59 34 0 34 -11 -3 -97
-33 -80 -53 -185 -44 -234 23 -121 138 -195 348 -224 65 -9 52 10 -17 25 -28
6 -65 17 -82 24 -27 12 -22 13 53 8 60 -3 82 -2 82 7 0 7 -4 10 -8 7 -4 -2
-41 0 -82 5 -41 5 -94 11 -117 13 -50 3 -83 30 -113 91 -28 57 -26 133 6 220
14 39 41 115 59 171 35 105 53 140 149 287 42 63 57 95 54 112 -5 22 -1 25 39
31 50 7 78 4 213 -28 l95 -23 -13 -28 c-7 -15 -12 -35 -10 -45 3 -12 11 -6 31
26 39 61 51 52 16 -14 -38 -73 -41 -160 -7 -190 12 -10 18 -13 14 -6 -4 7 -8
35 -8 62 1 52 40 146 74 177 23 21 113 29 153 13 l30 -12 -44 -16 c-35 -13
-49 -26 -68 -61 -26 -51 -30 -118 -9 -159 16 -31 71 -84 103 -101 81 -42 200
28 210 123 5 38 8 44 19 35 23 -19 56 -78 64 -114 8 -35 8 -35 -54 -64 -93
-44 -141 -54 -226 -48 -73 6 -74 6 -41 -9 36 -16 106 -19 181 -8 25 4 53 7 63
7 9 1 17 5 17 10 0 5 10 7 23 3 22 -5 30 5 50 66 3 9 18 18 33 20 29 3 47 28
20 28 -9 0 -16 7 -16 16 0 8 -12 32 -27 52 -16 20 -22 33 -15 28 20 -12 14 26
-12 78 l-24 47 27 -17 c70 -47 123 -61 74 -20 -15 12 -63 48 -106 79 -82 58
-92 69 -67 72 120 17 125 17 190 -14 35 -17 84 -33 109 -37 70 -9 75 -12 96
-46 10 -18 61 -76 112 -129 l92 -95 -40 -175 c-101 -441 -113 -529 -82 -600
37 -82 104 -89 211 -20 63 41 126 113 171 193 14 26 29 48 32 48 12 0 43 -96
40 -129 -4 -68 -53 -124 -145 -167 -46 -21 -47 -23 -26 -34 36 -19 84 -3 138
45 60 54 82 97 82 160 0 53 -10 77 -53 122 -41 44 -34 60 70 155 86 78 196
142 236 136 18 -2 23 -10 25 -47 7 -101 -56 -312 -139 -457 -53 -94 -154 -205
-213 -233 -47 -23 -106 -27 -139 -9 -12 6 -46 29 -75 51 -30 21 -55 37 -58 35
-2 -2 1 -18 8 -34 10 -27 7 -38 -21 -95 -37 -71 -161 -276 -200 -327 -20 -27
-23 -37 -14 -52 9 -13 7 -36 -8 -95 -19 -72 -19 -79 -4 -94 15 -15 16 -13 11
24 -4 24 -3 32 2 22 6 -14 12 -2 24 47 8 37 12 69 7 72 -4 2 -5 12 -2 22 5 11
11 1 21 -33 23 -84 25 -384 2 -545 -19 -139 -45 -274 -57 -294 -20 -36 -79
-99 -100 -107 -26 -10 -27 -32 -2 -37 17 -3 69 34 69 49 0 6 -9 5 -22 -1 -21
-10 -20 -9 2 9 25 20 25 20 28 0 2 -10 -13 -76 -32 -145 -38 -134 -41 -148
-27 -140 5 3 55 12 112 20 218 31 450 108 626 207 97 55 258 211 292 284 13
28 28 57 32 66 4 9 11 32 14 51 l6 34 -108 43 c-59 23 -132 60 -161 82 -29 22
-57 37 -64 33 -6 -4 -8 -3 -5 3 4 6 -57 59 -135 119 -77 59 -146 113 -152 119
-6 6 -27 22 -46 36 -20 14 -36 34 -37 47 -4 29 -13 35 182 -118 264 -208 308
-239 404 -280 131 -56 131 -56 131 -28 0 20 -14 29 -96 62 -107 44 -128 58
-442 304 -208 163 -239 193 -256 248 -6 19 -2 22 31 27 81 14 157 96 189 204
10 33 21 53 30 53 52 0 178 104 244 200 73 107 170 335 170 398 0 12 32 52 79
99 59 59 87 96 114 153 78 165 108 333 89 498 -7 53 -14 192 -16 307 -3 116
-10 245 -16 289 -25 174 -93 350 -190 491 -64 92 -293 316 -390 380 -146 97
-332 160 -505 171 -49 3 -108 12 -130 19 -146 52 -384 76 -531 55z m-674 -480
c0 -5 9 -10 20 -10 16 0 19 -7 18 -46 0 -29 4 -49 13 -55 25 -16 73 -9 114 16
48 30 52 30 60 5 4 -11 19 -27 35 -35 27 -14 30 -13 59 11 17 14 31 21 31 14
0 -7 16 -11 47 -9 30 2 48 -1 51 -9 2 -7 8 -10 12 -7 8 5 281 -14 288 -20 2
-2 10 -34 18 -72 18 -81 21 -242 5 -300 -17 -63 -38 -81 -86 -73 l-40 7 40 3
40 3 -49 6 c-48 6 -51 8 -75 58 -34 68 -36 69 -39 15 -2 -26 -9 -53 -17 -61
-12 -13 -17 -11 -36 13 -44 56 -95 53 -135 -8 -20 -30 -26 -32 -72 -32 -28 1
-45 4 -39 8 8 5 6 8 -4 8 -11 0 -23 18 -35 50 -10 28 -20 50 -23 50 -11 0 -58
-35 -84 -60 -24 -24 -27 -25 -123 -18 -89 6 -139 13 -241 34 -24 4 -33 12 -33
26 0 10 -4 17 -9 13 -14 -8 -25 78 -17 127 9 56 80 200 119 241 46 48 113 97
138 102 12 2 24 7 27 10 9 8 22 6 22 -5z m-238 -31 c-9 -12 -29 -36 -43 -53
-29 -34 -55 -75 -92 -146 -37 -69 -77 -136 -77 -128 0 16 66 156 97 206 36 57
110 142 124 142 5 0 1 -10 -9 -21z m1299 -111 c20 -1 34 -12 54 -44 40 -64 90
-71 119 -17 l13 26 26 -54 c46 -97 44 -223 -3 -267 -24 -23 -71 -18 -96 9 -9
10 -23 19 -31 19 -15 0 -102 -42 -142 -69 -36 -23 -134 -42 -143 -27 -17 25 0
219 32 381 l12 60 66 -8 c37 -4 79 -8 93 -9z m338 -157 c19 -12 26 -95 11
-131 -7 -17 -20 -30 -30 -30 -9 0 -21 -10 -26 -21 -7 -15 -10 10 -10 85 0 100
1 106 21 106 11 0 26 -4 34 -9z m-1349 -901 c0 -17 -3 -19 -19 -8 -21 13 -19
28 5 28 8 0 14 -9 14 -20z m844 -77 c101 -138 107 -154 25 -71 -42 42 -98 90
-124 107 l-47 30 34 4 c18 2 38 5 44 5 6 1 37 -33 68 -75z m-51 -53 c47 -51
49 -56 43 -98 -9 -70 -56 -122 -121 -136 -24 -5 -40 0 -79 26 -81 54 -107 134
-67 208 25 48 55 62 120 57 52 -4 58 -7 104 -57z m-850 33 c18 -10 -7 -22 -38
-18 -24 3 -41 -2 -60 -17 -23 -18 -26 -26 -22 -62 2 -23 8 -50 11 -61 4 -12 1
-28 -7 -39 -14 -19 -15 -19 -31 12 -47 92 20 214 109 196 17 -4 33 -8 38 -11z
m-23 -41 c0 -13 -30 -52 -41 -52 -13 0 -11 34 3 48 13 13 38 16 38 4z m2166
-357 c22 -53 19 -62 -21 -57 -54 6 -156 -48 -233 -124 l-64 -62 6 36 c3 21 6
53 6 73 0 33 3 37 43 49 57 17 109 44 163 85 59 45 81 45 100 0z m-651 -1232
c63 -147 61 -141 41 -124 -25 21 -118 210 -112 227 3 8 9 14 13 14 4 0 31 -53
58 -117z m-168 -95 c-3 -8 -6 -5 -6 6 -1 11 2 17 5 13 3 -3 4 -12 1 -19z m100
-40 c-3 -8 -6 -5 -6 6 -1 11 2 17 5 13 3 -3 4 -12 1 -19z m-939 -276 c-2 -8
59 -97 85 -124 9 -10 18 -21 20 -25 1 -5 8 -7 15 -7 9 2 10 -2 2 -11 -9 -11 0
-25 38 -64 28 -28 52 -51 55 -51 3 0 3 10 1 23 -4 20 -4 20 4 2 15 -32 -6 -62
-23 -35 -10 16 -35 -8 -28 -26 3 -8 0 -14 -6 -12 -16 4 -55 -59 -41 -67 8 -5
14 5 9 18 -2 5 66 74 70 71 5 -4 -49 -86 -63 -96 -5 -3 -14 -4 -21 -2 -18 7
-36 -41 -22 -56 9 -10 8 -12 -5 -7 -9 3 -19 0 -22 -8 -3 -9 0 -12 10 -8 10 4
12 0 8 -11 -26 -67 -95 191 -110 412 -6 92 -5 102 9 96 9 -3 16 -9 15 -12z
m32 -12 c0 -5 -2 -10 -4 -10 -3 0 -8 5 -11 10 -3 6 -1 10 4 10 6 0 11 -4 11
-10z m55 -90 l20 -25 -22 19 c-13 11 -23 24 -23 29 0 6 1 8 3 6 1 -2 11 -15
22 -29z m75 -100 c0 -5 -5 -10 -11 -10 -5 0 -7 5 -4 10 3 6 8 10 11 10 2 0 4
-4 4 -10z m30 -31 c0 -5 -4 -9 -8 -9 -5 0 -9 7 -9 15 0 8 4 12 9 9 4 -3 8 -9
8 -15z m405 -9 c-3 -5 -11 -10 -16 -10 -6 0 -7 5 -4 10 3 6 11 10 16 10 6 0 7
-4 4 -10z m-35 -15 c0 -7 -57 -35 -72 -35 -7 0 5 9 27 19 48 23 45 22 45 16z
m24 -171 c5 -14 4 -15 -9 -4 -17 14 -19 20 -6 20 5 0 12 -7 15 -16z m46 -54
c0 -5 -2 -10 -4 -10 -3 0 -8 5 -11 10 -3 6 -1 10 4 10 6 0 11 -4 11 -10z m20
-30 c0 -5 -4 -10 -10 -10 -5 0 -10 5 -10 10 0 6 5 10 10 10 6 0 10 -4 10 -10z
m80 -100 c-8 -5 -19 -10 -25 -10 -5 0 -3 5 5 10 8 5 20 10 25 10 6 0 3 -5 -5
-10z"/>
<path d="M2381 3074 c-29 -37 -27 -85 5 -117 52 -53 131 -42 155 20 32 86
-104 168 -160 97z m104 -24 c24 -27 13 -52 -22 -48 -28 3 -40 25 -29 54 8 20
30 18 51 -6z m-35 -81 c0 -5 -7 -9 -15 -9 -15 0 -20 12 -9 23 8 8 24 -1 24
-14z"/>
<path d="M1951 2938 c-7 -42 -11 -82 -9 -90 9 -23 29 71 26 120 -3 46 -3 46
-17 -30z"/>
<path d="M2194 2873 c11 -13 14 -23 8 -23 -6 0 -14 5 -17 10 -3 6 -12 10 -18
10 -20 -1 52 -60 73 -60 27 0 25 9 -6 20 -14 6 -23 14 -20 19 3 4 -4 17 -17
27 l-22 19 19 -22z"/>
<path d="M2794 2836 c-29 -21 -10 -30 25 -11 17 8 31 18 31 20 0 11 -37 4 -56
-9z"/>
<path d="M2088 2623 c62 -60 92 -179 60 -248 -14 -32 -30 -32 -62 0 -27 27
-72 33 -109 14 -26 -13 -107 -90 -107 -101 0 -16 27 -7 70 24 47 35 92 39 153
13 40 -17 71 -3 92 40 44 94 -9 222 -115 280 -8 5 0 -5 18 -22z"/>
<path d="M2927 1573 c-42 -55 -172 -179 -227 -216 -40 -27 -4 -19 62 14 71 36
146 103 187 167 63 101 47 125 -22 35z"/>
<path d="M2290 1181 c-96 -7 -95 -17 2 -27 50 -5 71 -3 96 10 38 19 40 27 10
24 -13 -1 -61 -4 -108 -7z"/>
</g>
</svg>
