<?xml version="1.0" standalone="no"?>
<!DOCTYPE svg PUBLIC "-//W3C//DTD SVG 20010904//EN"
 "http://www.w3.org/TR/2001/REC-SVG-20010904/DTD/svg10.dtd">
<svg version="1.0" xmlns="http://www.w3.org/2000/svg"
 width="512.000000pt" height="512.000000pt" viewBox="0 0 512.000000 512.000000"
 preserveAspectRatio="xMidYMid meet">

<g transform="translate(0.000000,512.000000) scale(0.100000,-0.100000)"
fill="#000000" stroke="none">
<path d="M1657 4895 c-159 -30 -335 -110 -481 -218 -98 -73 -364 -337 -430
-427 -79 -107 -86 -128 -129 -375 -39 -228 -39 -232 -41 -510 -1 -315 -5 -291
81 -448 l55 -98 -12 -49 c-22 -91 29 -202 167 -364 82 -96 145 -147 254 -204
43 -23 99 -63 130 -95 42 -42 69 -59 112 -73 31 -10 66 -27 77 -39 20 -21 20
-21 -3 -107 -13 -47 -31 -97 -40 -111 -8 -13 -62 -53 -118 -88 -57 -35 -139
-90 -182 -122 -44 -32 -107 -74 -142 -93 -34 -19 -70 -43 -80 -54 -9 -10 -28
-64 -41 -119 -13 -56 -64 -250 -114 -433 -85 -310 -98 -378 -71 -378 5 0 16
24 24 52 58 205 137 501 177 655 25 100 52 189 60 198 8 9 34 27 59 40 25 12
87 52 136 87 50 36 104 73 120 83 l30 19 -30 -33 c-33 -37 -157 -134 -213
-168 -21 -12 -42 -26 -48 -32 -7 -5 -14 -8 -17 -5 -11 11 -26 -28 -47 -121
-12 -55 -55 -217 -96 -360 -95 -340 -116 -425 -110 -440 6 -16 52 -40 126 -67
77 -28 244 -35 330 -15 43 10 70 12 82 6 13 -7 18 -6 18 3 0 8 5 6 11 -4 16
-29 215 -81 404 -108 135 -18 359 -39 367 -34 4 3 8 56 8 117 0 160 19 477 31
508 7 19 32 35 94 63 70 32 91 47 119 85 57 77 112 197 167 364 29 86 57 157
62 157 4 0 5 -5 2 -10 -4 -6 -15 -48 -26 -93 -23 -97 -73 -251 -99 -304 -10
-21 -16 -41 -13 -45 2 -5 0 -8 -5 -8 -5 0 -25 -24 -45 -54 -43 -64 -81 -95
-160 -127 -32 -13 -62 -30 -66 -39 -11 -21 -20 -157 -28 -408 l-6 -212 176 0
c349 0 736 42 939 102 42 12 41 -6 13 188 -8 52 -12 96 -10 98 2 2 41 -44 87
-103 98 -126 95 -122 108 -158 7 -21 25 -35 67 -54 176 -78 284 -98 495 -90
172 6 231 19 355 77 122 57 242 177 210 209 -9 10 -8 11 4 6 10 -4 19 0 23 11
7 19 8 19 -139 184 -114 129 -188 228 -249 333 -27 45 -64 106 -83 135 l-34
53 25 112 c14 62 28 139 31 172 7 54 17 75 114 225 193 296 281 459 281 517 0
36 -29 63 -67 63 -31 0 -100 -65 -138 -129 -16 -28 -34 -51 -38 -51 -5 0 -24
-12 -44 -27 l-36 -28 7 89 c9 116 39 293 76 461 17 74 30 148 30 164 0 40 -26
64 -59 56 -60 -15 -100 -85 -156 -271 -57 -192 -105 -328 -125 -354 -18 -23
-18 -22 -25 96 -12 188 -10 476 4 637 14 164 8 202 -34 213 -35 9 -82 -22
-106 -67 -46 -90 -62 -183 -64 -371 -2 -151 -11 -249 -41 -444 -10 -66 -23
-60 -144 61 -76 77 -122 115 -137 115 -30 0 -100 -32 -149 -68 -34 -25 -52
-52 -99 -151 -36 -74 -65 -123 -76 -126 -28 -9 -58 -53 -70 -102 -8 -31 -16
-43 -30 -43 -20 0 -219 68 -232 79 -4 4 -18 45 -31 92 -13 46 -26 91 -30 99
-3 10 8 24 35 43 49 34 93 102 110 170 9 41 21 60 55 90 52 46 130 150 177
237 98 180 110 385 27 443 l-21 14 25 74 c44 132 64 335 46 466 -9 71 -23 107
-104 275 -51 106 -122 235 -156 286 -79 119 -222 268 -315 331 -115 76 -351
171 -520 207 -103 22 -275 26 -368 9z m793 -735 c24 -47 25 -73 5 -90 -8 -7
-15 -17 -15 -23 0 -16 -112 -127 -127 -127 -7 0 -13 -5 -13 -11 0 -5 -4 -8
-10 -4 -18 11 -56 -7 -72 -35 -10 -18 -25 -30 -38 -30 -11 0 -20 -4 -20 -10 0
-5 -9 -10 -19 -10 -11 0 -21 -4 -23 -9 -1 -5 -14 -11 -28 -13 -23 -3 -25 0
-22 32 2 19 4 95 5 168 2 120 4 132 20 132 28 0 59 -19 89 -54 l27 -31 1 58
c0 44 3 57 15 57 8 0 15 -4 15 -9 0 -12 85 -51 110 -51 27 0 70 47 70 76 0 33
7 30 30 -16z m-485 -86 c9 -4 25 -25 37 -48 40 -77 34 -273 -8 -273 -8 0 -12
2 -10 5 7 6 -27 42 -41 42 -6 0 -13 -12 -15 -27 -2 -20 -9 -29 -25 -31 -13 -2
-23 -8 -23 -13 0 -5 -18 -9 -40 -9 -22 0 -40 -4 -40 -9 0 -4 -24 -9 -52 -9
-29 -1 -66 -3 -83 -4 l-29 -3 4 90 c3 50 5 116 5 148 0 55 1 57 26 57 15 0 29
6 32 14 3 7 22 16 41 20 20 3 53 9 74 12 20 4 39 10 42 14 3 4 23 12 45 18 22
5 41 10 42 11 1 1 9 -2 18 -5z m-894 -81 c-12 -20 -14 -14 -5 12 4 9 9 14 11
11 3 -2 0 -13 -6 -23z m94 -5 c12 -51 27 -68 61 -68 26 0 38 8 65 44 30 39 38
44 67 41 25 -2 37 -10 48 -31 8 -16 21 -32 27 -36 20 -13 60 -9 79 8 14 14 20
14 33 4 11 -9 15 -33 15 -94 -1 -92 -22 -211 -33 -183 -5 14 -20 17 -96 17
-70 0 -90 3 -95 15 -3 8 -15 15 -26 15 -40 0 -116 49 -182 118 -38 39 -68 78
-68 87 0 28 33 74 60 84 37 14 38 14 45 -21z m1589 -903 c15 -105 -31 -321
-95 -447 -37 -74 -37 -92 2 -48 21 24 29 29 25 15 -31 -115 -104 -345 -139
-436 -118 -304 -283 -546 -396 -580 -108 -32 -380 128 -606 356 -132 134 -239
292 -295 433 l-20 54 20 5 c18 5 9 17 -63 87 -102 98 -158 179 -164 238 -4 36
2 56 40 128 45 84 45 84 96 96 48 11 51 10 46 -7 -8 -26 21 -36 43 -16 22 20
72 33 199 52 128 19 206 20 201 3 -8 -25 -130 -66 -195 -67 -36 -1 -63 3 -63
9 0 13 -23 13 -55 -2 -30 -13 -33 -28 -6 -28 11 0 21 -5 23 -10 2 -6 40 -14
85 -18 93 -9 154 5 221 51 50 35 89 42 133 23 38 -16 33 -2 71 -181 8 -38 15
-52 21 -46 12 12 -7 202 -29 283 -18 70 -20 65 27 79 39 12 42 11 61 -12 19
-23 19 -17 2 26 -3 8 -2 15 4 15 5 0 15 -14 22 -31 9 -22 17 -28 29 -23 64 27
85 31 113 20 23 -9 28 -15 23 -33 -8 -33 10 -28 42 12 32 40 43 43 68 15 9
-10 33 -24 52 -31 40 -13 77 5 95 49 7 15 13 28 14 30 1 2 19 -9 40 -23 43
-29 77 -40 100 -31 13 5 10 10 -13 29 -65 53 -85 61 -153 59 -36 -2 -74 -5
-85 -9 -11 -3 -16 -2 -12 3 9 9 88 20 220 30 l87 7 34 -37 c19 -20 37 -36 40
-36 14 0 4 58 -15 94 -19 36 -19 39 -2 51 16 13 22 7 59 -68 23 -45 45 -105
48 -132z m315 88 c16 -34 26 -116 17 -139 -5 -14 -11 -9 -27 24 -17 34 -26 42
-48 42 -15 0 -32 -5 -39 -12 -22 -22 -21 -3 1 55 20 52 25 57 53 57 24 0 34
-6 43 -27z m-689 -22 c0 -11 -26 -22 -34 -14 -12 12 -5 23 14 23 11 0 20 -4
20 -9z m1495 -21 c3 -5 -1 -110 -10 -233 -12 -181 -13 -266 -5 -443 12 -272
12 -277 0 -269 -19 12 -10 -12 13 -32 30 -29 90 -36 67 -8 -9 11 -6 22 18 57
27 40 46 93 147 412 36 112 80 193 113 204 19 6 15 -25 -22 -196 -38 -170 -64
-331 -73 -453 l-6 -77 -34 14 c-51 22 -61 5 -14 -23 23 -13 41 -29 41 -35 0
-5 -31 -40 -70 -77 -38 -36 -70 -74 -70 -84 0 -25 16 -21 39 11 11 15 40 41
65 57 24 17 52 42 60 57 9 15 48 48 86 73 39 26 70 50 70 55 0 4 20 35 45 69
44 60 85 85 107 63 21 -21 -87 -218 -288 -525 -57 -87 -104 -168 -104 -181 0
-99 -71 -372 -136 -524 -24 -58 -43 -110 -41 -115 2 -6 18 5 37 24 18 19 28
27 21 18 -7 -11 -9 -32 -5 -56 4 -28 1 -50 -10 -71 -12 -23 -13 -32 -3 -35 7
-3 4 -6 -6 -6 -10 -1 -22 -12 -27 -26 -5 -14 -13 -24 -17 -23 -9 3 -58 -27
-88 -53 -11 -10 -24 -18 -30 -18 -38 -2 -95 -15 -95 -22 0 -5 -27 -9 -60 -8
-32 1 -57 6 -54 10 3 5 -2 9 -11 9 -9 0 -13 -5 -10 -10 7 -12 3 -12 -20 -4
-11 5 -13 9 -6 14 7 4 -3 28 -29 69 -22 34 -40 64 -40 66 0 2 15 -4 33 -15 39
-23 102 -35 111 -22 3 5 -14 17 -39 26 -58 23 -169 127 -232 218 -78 114 -176
316 -166 345 2 6 -23 66 -57 132 -67 134 -110 252 -110 302 0 18 14 71 31 118
17 48 38 105 46 129 8 23 18 42 21 42 4 0 20 -12 36 -26 27 -26 28 -28 24
-123 -2 -75 -8 -106 -25 -142 -13 -25 -23 -48 -23 -52 0 -12 23 -7 41 9 16 15
20 13 48 -26 17 -23 33 -51 36 -61 4 -10 11 -19 16 -19 18 0 9 -51 -21 -117
-35 -78 -36 -82 -10 -58 26 24 59 114 53 146 -3 14 1 30 9 36 21 17 80 33 135
37 28 2 55 6 60 9 6 4 8 41 6 84 -3 56 1 99 15 153 17 65 18 76 5 83 -20 12
-53 92 -53 128 0 17 7 44 16 60 20 39 14 45 -18 19 -27 -21 -78 -43 -78 -34 0
3 6 17 14 32 15 29 39 132 32 139 -2 2 -25 -35 -51 -82 -71 -131 -127 -185
-190 -185 -27 0 -31 10 -15 41 7 12 21 19 39 19 37 0 59 24 41 45 -7 8 -19 15
-26 15 -8 0 -14 2 -14 5 0 16 63 127 82 145 28 26 111 70 134 70 9 0 68 -54
133 -120 64 -66 124 -120 132 -120 33 0 58 55 69 152 6 51 16 129 24 173 8 50
11 124 8 200 -6 173 29 346 85 407 18 20 39 23 48 8z m-829 -107 c23 -52 25
-62 14 -98 -54 -180 -288 -451 -342 -397 -13 13 12 92 29 92 22 0 93 71 124
125 33 57 37 110 14 156 -15 28 -14 32 7 70 20 36 100 108 121 109 4 0 20 -26
33 -57z m-186 -203 c0 -31 -44 -103 -89 -145 l-31 -29 6 34 c7 46 31 105 63
158 23 38 27 40 39 25 6 -9 12 -29 12 -43z m-1922 -37 c23 -13 42 -31 42 -39
0 -8 9 -32 20 -54 11 -22 20 -41 20 -44 0 -2 -30 7 -67 20 -123 43 -159 28
-150 -64 7 -62 0 -59 -37 14 -35 70 -43 127 -22 159 32 49 116 53 194 8z m34
-160 c51 -20 95 -37 96 -39 2 -1 -4 -36 -13 -78 -9 -42 -14 -88 -10 -105 12
-55 108 -121 175 -121 26 0 33 -7 54 -49 14 -27 23 -51 20 -54 -8 -8 -42 6
-154 61 -79 39 -110 62 -186 137 -50 49 -98 101 -107 115 -8 14 -18 58 -22 98
l-7 72 31 0 c17 0 73 -16 123 -37z m169 -120 c32 -34 88 -157 77 -169 -11 -11
-114 53 -126 78 -13 27 -7 128 7 128 4 0 23 -17 42 -37z m2049 -328 c0 -9 -9
-15 -25 -15 -24 0 -32 10 -18 23 12 13 43 7 43 -8z m184 -59 c4 -17 17 -54 30
-82 23 -49 23 -54 10 -110 -7 -33 -14 -92 -14 -132 0 -45 -4 -71 -10 -67 -5 3
-19 38 -31 78 -11 40 -28 80 -36 89 -8 9 -41 22 -72 28 -94 19 -90 16 -93 73
l-3 52 46 21 c25 12 56 35 70 51 19 23 32 30 61 30 33 0 37 -3 42 -31z m-808
-78 c-8 -79 -63 -348 -83 -406 -8 -24 -16 -54 -19 -65 -9 -47 -78 -257 -84
-257 -4 0 -34 29 -68 64 l-62 64 29 68 c47 114 64 145 77 140 7 -3 14 0 16 6
3 7 10 8 17 4 10 -7 10 -10 1 -16 -9 -5 -8 -9 3 -13 7 -3 20 -1 27 3 10 6 4
14 -21 29 -37 23 -59 27 -59 11 0 -5 -7 -10 -15 -10 -9 0 9 31 46 83 33 45 90
144 127 219 37 76 69 138 71 138 2 0 1 -28 -3 -62z m-1079 -180 c-3 -8 -6 -5
-6 6 -1 11 2 17 5 13 3 -3 4 -12 1 -19z m320 -181 c66 -42 81 -56 77 -72 -4
-16 -3 -17 5 -5 5 8 12 12 15 9 3 -3 -6 -16 -21 -30 -15 -13 -22 -17 -15 -7 9
11 10 18 2 23 -5 3 -10 1 -10 -5 0 -6 -4 -8 -10 -5 -5 3 -23 -13 -40 -36 -30
-42 -40 -77 -18 -63 7 4 8 3 4 -4 -4 -7 -2 -12 3 -12 6 0 11 6 11 14 0 15 38
66 49 66 9 0 195 -139 198 -148 2 -4 -12 -54 -31 -111 l-34 -103 -57 68 c-31
38 -74 96 -95 129 -21 33 -50 74 -63 90 -43 54 -207 355 -207 380 0 3 35 -24
78 -60 42 -36 114 -89 159 -118z m31 -126 c-7 -12 -16 -21 -21 -21 -4 0 0 11
10 24 22 29 30 27 11 -3z m-757 -358 c13 -16 12 -17 -3 -4 -10 7 -18 15 -18
17 0 8 8 3 21 -13z m91 -82 c8 11 9 11 6 1 -4 -16 -22 -18 -24 -2 -2 7 -1 6 3
-1 4 -8 8 -7 15 2z m2824 -74 c-2 -7 -5 -4 -5 6 -1 10 -5 15 -11 12 -6 -4 -7
1 -3 11 6 15 7 15 15 0 5 -9 7 -22 4 -29z m-5 -34 c32 -51 33 -176 3 -243 -39
-86 -136 -153 -242 -169 -76 -11 -219 6 -278 33 -55 25 -86 67 -74 101 5 15
10 13 29 -19 30 -48 63 -69 100 -64 17 2 28 1 25 -4 -7 -10 138 2 150 12 5 5
15 6 24 3 10 -5 13 -2 8 6 -5 8 -3 12 5 10 28 -3 40 1 33 13 -5 8 -2 9 10 5 9
-4 26 -1 36 6 25 15 26 29 3 20 -10 -3 -16 -4 -13 -2 41 35 54 43 41 27 -11
-15 -11 -18 2 -18 18 0 39 24 29 34 -4 4 -1 6 7 4 7 -2 16 3 19 11 3 9 0 11
-8 6 -9 -5 -11 -4 -6 4 4 6 12 9 17 6 12 -8 30 40 23 62 -5 15 -4 16 5 3 9
-11 11 7 9 75 -1 79 4 115 17 115 1 0 13 -17 26 -37z m16 -5 c-3 -8 -6 -5 -6
6 -1 11 2 17 5 13 3 -3 4 -12 1 -19z m183 -123 l25 -30 -27 24 c-16 14 -28 29
-28 34 0 6 1 8 3 6 1 -2 13 -17 27 -34z m-809 -128 c-10 -9 -11 -8 -5 6 3 10
9 15 12 12 3 -3 0 -11 -7 -18z m206 -203 c-3 -3 -12 -4 -19 -1 -8 3 -5 6 6 6
11 1 17 -2 13 -5z"/>
<path d="M2463 3040 c-13 -5 -23 -12 -23 -16 0 -8 53 5 65 17 12 12 -12 11
-42 -1z"/>
<path d="M2324 3009 c-5 -8 -28 -10 -72 -6 -60 6 -64 5 -50 -9 8 -9 33 -18 55
-21 33 -4 44 -1 69 21 16 14 24 26 17 26 -6 0 -15 -5 -19 -11z"/>
<path d="M1740 2931 c0 -10 50 -25 57 -17 3 2 2 9 -2 15 -8 13 -55 15 -55 2z"/>
<path d="M1601 2900 c-35 -17 -73 -30 -85 -30 -11 0 -27 -4 -35 -9 -11 -7 -9
-10 8 -16 14 -4 50 8 113 39 51 24 86 44 78 45 -8 0 -44 -13 -79 -29z"/>
<path d="M1725 2870 c-14 -6 -4 -9 38 -9 32 -1 57 3 57 9 0 12 -67 12 -95 0z"/>
<path d="M2012 2678 c-19 -19 -14 -26 13 -20 73 13 72 -90 -1 -147 -52 -41
-196 -23 -224 28 -15 30 -12 41 20 71 23 22 27 29 15 34 -8 3 -27 -5 -42 -18
-48 -42 -28 -129 38 -163 35 -18 154 -16 190 3 74 38 117 173 67 208 -27 19
-59 21 -76 4z"/>
<path d="M1640 2524 c-124 -82 -113 -66 -108 -158 3 -65 10 -92 33 -134 37
-67 51 -67 22 1 -16 38 -22 71 -22 125 0 70 2 75 30 95 44 31 121 105 115 110
-3 2 -34 -15 -70 -39z"/>
<path d="M2364 2515 c31 -75 37 -105 34 -172 -3 -64 -1 -71 12 -57 33 33 6
200 -37 236 -15 11 -16 11 -9 -7z"/>
<path d="M1441 2479 c-19 -34 -22 -49 -17 -92 11 -85 22 -85 29 1 3 43 11 90
16 105 16 41 -2 32 -28 -14z"/>
<path d="M2225 2462 c-12 -29 -32 -49 -83 -83 -96 -63 -147 -71 -293 -43 -138
26 -165 36 -172 64 -5 18 -9 20 -26 11 -24 -13 -35 -43 -25 -73 6 -21 7 -21
20 -3 13 17 15 17 61 -3 26 -11 95 -28 152 -37 88 -15 113 -15 160 -5 62 14
172 81 235 144 37 37 38 40 21 53 -28 20 -34 17 -50 -25z"/>
<path d="M2095 2185 c-62 -71 -68 -101 -9 -44 31 29 82 109 70 109 -2 0 -29
-29 -61 -65z"/>
<path d="M1820 2191 c30 -28 71 -62 90 -75 36 -25 110 -45 110 -30 0 5 -37 29
-83 53 -45 24 -102 57 -127 73 l-45 30 55 -51z"/>
<path d="M1990 2043 c-21 -8 -50 -34 -50 -46 0 -5 6 -4 14 2 8 7 40 15 70 18
62 6 72 17 25 27 -35 7 -38 7 -59 -1z"/>
<path d="M3752 2660 c2 -8 18 -16 34 -17 18 -1 22 0 9 4 -11 3 -26 10 -34 17
-11 9 -13 8 -9 -4z"/>
<path d="M4113 2547 c5 -15 37 -22 37 -9 0 5 -9 12 -21 15 -13 3 -19 1 -16 -6z"/>
<path d="M3730 2225 c0 -2 18 -14 40 -25 38 -19 55 -14 28 7 -15 12 -68 26
-68 18z"/>
<path d="M3496 2088 c-34 -34 -40 -58 -16 -58 15 0 62 68 58 82 -3 8 -18 0
-42 -24z"/>
<path d="M4300 2100 c0 -12 28 -25 36 -17 3 3 -4 10 -15 17 -15 7 -21 7 -21 0z"/>
<path d="M3854 2065 c10 -8 33 -27 51 -44 38 -34 50 -31 30 8 -14 28 -53 51
-83 51 -15 -1 -15 -2 2 -15z"/>
<path d="M4033 1812 c18 -26 33 -42 35 -36 4 17 -26 62 -49 74 -12 7 -8 -5 14
-38z"/>
<path d="M3580 1724 c22 -20 54 -61 71 -91 38 -66 49 -64 17 3 -24 53 -89 124
-113 124 -9 0 2 -15 25 -36z"/>
<path d="M3711 1722 c29 -53 102 -123 157 -151 55 -28 62 -10 9 24 -23 16 -75
60 -116 99 -73 70 -74 71 -50 28z"/>
<path d="M3515 1635 c49 -125 56 -244 25 -395 -10 -52 -18 -96 -15 -98 8 -8
38 50 53 105 19 72 21 233 3 288 -8 21 -27 57 -44 80 -16 22 -26 31 -22 20z"/>
<path d="M2435 1620 c-4 -7 0 -19 9 -28 15 -16 16 -15 13 5 -4 29 -13 38 -22
23z"/>
</g>
</svg>
