<?xml version="1.0" standalone="no"?>
<!DOCTYPE svg PUBLIC "-//W3C//DTD SVG 20010904//EN"
 "http://www.w3.org/TR/2001/REC-SVG-20010904/DTD/svg10.dtd">
<svg version="1.0" xmlns="http://www.w3.org/2000/svg"
 width="512.000000pt" height="512.000000pt" viewBox="0 0 512.000000 512.000000"
 preserveAspectRatio="xMidYMid meet">

<g transform="translate(0.000000,512.000000) scale(0.100000,-0.100000)"
fill="#000000" stroke="none">
<path d="M2346 4900 c-135 -22 -263 -68 -396 -145 -25 -14 -85 -39 -134 -57
-171 -60 -329 -189 -439 -359 -110 -170 -220 -428 -244 -573 -19 -115 -11
-289 18 -401 11 -44 24 -114 28 -155 11 -103 35 -189 82 -289 22 -46 38 -85
37 -86 -2 -1 -18 -6 -37 -11 -57 -15 -75 -52 -79 -155 -8 -184 57 -349 187
-480 104 -103 258 -205 393 -259 52 -21 64 -32 136 -129 89 -119 276 -328 316
-354 23 -15 26 -24 26 -72 0 -67 12 -54 -275 -311 -115 -104 -223 -201 -239
-215 -25 -23 -28 -30 -17 -43 15 -18 -11 -40 299 242 110 100 206 182 211 182
21 0 11 -26 -21 -55 -18 -16 -69 -60 -113 -98 -129 -111 -225 -208 -218 -220
3 -5 1 -7 -4 -4 -13 8 -46 -27 -36 -38 5 -4 3 -5 -3 -2 -6 3 -25 -9 -43 -27
l-31 -32 31 -45 c46 -64 111 -129 122 -122 6 3 7 2 4 -4 -3 -5 14 -29 38 -53
25 -24 45 -40 45 -35 0 6 5 2 11 -7 25 -44 229 -160 361 -207 139 -48 243 -65
413 -65 83 0 156 4 164 8 7 5 33 9 57 11 25 2 47 4 49 6 2 2 -42 44 -97 93
l-101 89 6 121 c10 183 -2 174 135 100 64 -35 122 -67 128 -72 6 -6 14 -70 17
-152 4 -79 9 -145 11 -147 7 -7 174 67 246 109 75 43 258 191 268 216 3 9 16
25 29 35 13 10 20 23 17 29 -4 6 -2 8 4 5 13 -9 115 145 163 248 67 144 109
313 109 441 l0 61 -93 7 c-51 3 -152 13 -223 22 -71 8 -141 15 -156 16 -18 1
-28 8 -32 22 -3 11 -4 21 -3 22 1 1 24 -2 50 -7 64 -12 393 -49 435 -49 24 0
32 4 32 19 0 16 -15 19 -137 30 -76 7 -207 24 -291 37 -152 23 -155 24 -203
65 -27 22 -49 46 -49 51 0 6 18 43 39 82 21 39 50 103 64 141 14 39 40 95 59
125 18 31 43 78 56 105 18 38 33 54 63 69 90 41 216 252 261 431 17 69 22 121
22 225 1 126 -1 139 -26 192 -26 57 -44 71 -112 93 -20 6 -21 0 4 210 21 180
4 424 -39 580 -22 78 -71 193 -100 234 -10 14 -33 62 -50 106 -89 232 -262
414 -506 534 -178 87 -305 118 -510 125 -71 3 -157 1 -189 -4z m580 -609 c59
-59 90 -123 77 -157 -5 -13 -3 -15 7 -9 8 5 11 4 7 -2 -4 -6 -18 -8 -32 -5
-22 4 -25 1 -25 -22 0 -19 -5 -26 -20 -26 -11 0 -20 -7 -20 -15 0 -10 -10 -15
-27 -15 -31 0 -95 -21 -104 -34 -12 -16 -38 3 -53 39 -18 43 -30 44 -46 6 -6
-16 -20 -37 -31 -47 -10 -9 -19 -22 -19 -29 0 -6 -29 -15 -69 -21 l-69 -9 -6
47 c-8 55 -18 61 -35 19 -23 -54 -74 -98 -124 -105 -26 -4 -49 -11 -52 -17 -4
-5 -29 -9 -56 -9 -44 0 -50 2 -45 18 5 15 0 18 -34 20 -22 2 -53 -4 -70 -13
-28 -14 -32 -14 -46 0 -34 34 -97 25 -134 -20 -13 -16 -15 -16 -21 2 -4 10 -8
33 -8 51 -1 39 -10 40 -47 5 -16 -15 -35 -26 -43 -25 -7 2 -10 -1 -6 -7 9 -15
-40 4 -75 29 -16 11 -35 20 -42 20 -14 0 -38 39 -38 62 0 17 43 98 52 98 4 0
8 -9 8 -20 0 -11 5 -20 10 -20 6 0 10 4 10 9 0 18 83 24 330 22 151 -1 249 2
242 8 -15 9 10 15 113 26 76 8 93 13 98 28 2 7 3 4 2 -5 -5 -29 34 -22 41 6 5
21 10 24 40 19 25 -4 34 -2 34 8 0 18 83 47 185 65 44 7 82 14 84 14 2 0 0 7
-3 16 -3 8 -2 12 4 9 6 -3 10 -1 10 4 0 19 17 12 46 -18z m105 -47 c4 -16 7
-23 8 -16 0 6 11 12 22 12 17 0 20 -4 15 -22 -3 -13 -6 -31 -6 -40 0 -10 -4
-18 -10 -18 -5 0 -10 9 -10 21 0 13 -4 18 -12 13 -6 -4 -8 -3 -4 4 3 6 2 13
-3 16 -5 3 -14 20 -20 37 -8 23 -8 30 2 26 6 -2 15 -17 18 -33z m278 -999 c23
-86 129 -311 159 -339 25 -22 42 -14 71 34 14 22 46 60 72 86 45 44 52 48 100
48 47 1 54 -2 80 -34 35 -41 37 -54 7 -44 -74 24 -124 -25 -186 -184 -43 -108
-65 -201 -45 -189 5 3 18 31 28 61 21 62 24 60 56 -23 23 -62 27 -137 9 -172
-20 -38 -78 -106 -110 -129 l-29 -20 6 112 c9 186 -22 101 -62 -167 -21 -138
-66 -330 -98 -415 -13 -36 -57 -123 -96 -195 -87 -157 -109 -230 -47 -159 l22
27 32 -80 c18 -44 32 -87 32 -96 0 -17 19 -57 31 -67 20 -16 108 -434 95 -447
-3 -3 -29 11 -57 32 -56 40 -124 74 -148 75 -11 0 -9 -4 5 -16 17 -14 17 -15
1 -10 -10 3 -26 6 -35 6 -15 0 -15 2 -2 10 11 7 12 10 2 10 -9 0 -3 19 19 57
18 31 27 53 21 49 -17 -10 -15 6 8 55 12 28 20 37 20 24 0 -16 2 -17 10 -5 5
9 5 19 -2 27 -8 10 -7 12 6 7 9 -3 16 -1 16 6 0 6 -4 9 -9 6 -5 -4 -11 -1 -13
5 -2 7 -17 -19 -33 -57 -15 -38 -33 -75 -38 -81 -5 -7 -7 -19 -4 -27 4 -10 1
-13 -7 -10 -7 3 -20 -11 -31 -35 -13 -30 -27 -43 -52 -52 -18 -6 -55 -25 -82
-43 -58 -39 -82 -50 -90 -38 -3 5 -27 16 -52 24 -36 12 -50 13 -59 5 -8 -9
-10 -8 -5 4 4 11 -1 18 -16 22 -24 6 -39 1 -39 -13 0 -11 129 -56 153 -53 18
3 24 -22 7 -32 -5 -3 -10 -1 -10 4 0 6 -5 11 -11 11 -7 0 -9 -9 -6 -22 3 -13
0 -34 -7 -47 l-13 -24 -5 26 c-4 18 -1 24 9 20 7 -3 13 0 13 6 0 6 -5 11 -11
11 -5 0 -7 6 -4 13 4 6 -1 3 -9 -8 -32 -39 -66 -243 -43 -257 7 -5 8 -8 2 -8
-6 0 -12 -14 -13 -31 -2 -19 2 -28 8 -24 5 3 10 -1 10 -11 0 -14 -2 -15 -17
-3 -87 69 -229 299 -317 511 -40 97 -43 110 -21 102 8 -4 15 -12 15 -18 0 -7
24 -29 53 -48 87 -59 127 -80 127 -69 0 22 -2 26 -12 23 -6 -1 -19 0 -30 4
-15 4 -17 8 -8 14 9 6 6 11 -11 21 -13 7 -30 12 -38 10 -7 -1 -10 2 -7 7 5 8
-54 62 -68 62 -3 0 -17 11 -31 24 -18 17 -31 45 -41 88 -8 35 -16 73 -19 86
-5 20 -3 22 22 16 16 -4 57 -29 91 -56 88 -67 128 -86 212 -99 134 -20 214 5
296 94 59 64 98 136 109 203 6 37 5 36 -36 -31 -116 -191 -168 -230 -304 -228
-120 1 -194 36 -309 143 -31 28 -51 40 -53 33 -7 -21 -22 -15 -92 34 -175 124
-462 461 -587 688 -53 98 -124 208 -130 202 -3 -2 5 -28 16 -57 11 -29 19 -54
17 -56 -10 -10 -92 63 -132 117 -41 56 -45 66 -45 120 0 54 15 109 29 109 4 0
17 -7 29 -16 43 -30 33 -7 -15 36 -75 66 -165 131 -202 147 -31 13 -36 13 -60
-5 -14 -10 -31 -34 -38 -53 -11 -32 -12 -30 -12 42 -1 64 3 81 21 104 35 44
76 31 149 -49 65 -70 91 -85 116 -65 18 16 13 100 -11 168 -12 37 -12 46 4 89
30 79 43 193 37 318 l-5 114 36 0 c45 0 102 25 162 71 25 19 54 34 65 34 11 0
50 9 86 21 57 19 68 20 92 8 93 -49 380 -64 519 -26 42 11 96 30 120 42 l43
21 -34 -32 c-20 -18 -29 -34 -23 -38 7 -4 7 -20 -1 -54 -5 -26 -8 -50 -4 -53
3 -3 35 6 72 21 238 95 398 80 494 -46 20 -26 40 -48 45 -48 16 -1 -9 68 -62
172 -2 4 3 7 10 7 8 0 39 17 69 38 l54 38 6 -96 c4 -52 16 -131 28 -175z m511
-317 c56 -92 -6 -398 -115 -573 -97 -156 -218 -212 -198 -91 5 30 13 41 42 56
78 40 149 139 166 231 8 41 -17 109 -60 165 -14 18 -25 40 -25 49 0 19 66 153
88 178 9 10 29 17 49 17 27 0 37 -6 53 -32z m-2431 -324 c88 -68 95 -81 76
-128 -37 -87 -3 -200 86 -288 51 -52 62 -58 98 -58 40 0 41 -1 72 -62 17 -35
38 -71 47 -80 40 -46 -78 9 -214 101 -159 106 -286 265 -308 384 -14 74 21
187 58 187 8 0 46 -25 85 -56z m1171 -1568 c0 -3 -4 -8 -10 -11 -5 -3 -10 -1
-10 4 0 6 5 11 10 11 6 0 10 -2 10 -4z m640 -36 c0 -5 -5 -10 -11 -10 -5 0 -7
5 -4 10 3 6 8 10 11 10 2 0 4 -4 4 -10z m-20 -35 c0 -8 -4 -15 -10 -15 -5 0
-7 7 -4 15 4 8 8 15 10 15 2 0 4 -7 4 -15z m144 -60 c11 0 21 -6 24 -13 3 -11
0 -12 -19 -2 -23 11 -23 10 -4 -5 11 -8 26 -13 34 -10 9 3 12 3 8 -1 -4 -4 0
-16 10 -26 18 -20 38 -25 27 -6 -4 7 -3 8 5 4 6 -4 9 -12 6 -17 -4 -5 1 -9 9
-9 9 0 18 -10 21 -22 7 -33 35 -288 35 -322 l0 -29 -58 54 c-31 30 -77 71
-101 93 l-44 38 12 69 c14 85 14 196 1 204 -6 4 -7 11 -3 18 4 7 8 6 12 -4 3
-8 15 -14 25 -14z m223 -17 c-3 -8 -6 -5 -6 6 -1 11 2 17 5 13 3 -3 4 -12 1
-19z m-1162 -8 c10 -11 16 -20 13 -20 -3 0 -13 9 -23 20 -10 11 -16 20 -13 20
3 0 13 -9 23 -20z m116 -107 c13 -16 12 -17 -3 -4 -17 13 -22 21 -14 21 2 0
10 -8 17 -17z"/>
<path d="M1789 3405 c-62 -20 -141 -92 -167 -152 -24 -57 -37 -133 -28 -168 8
-31 26 -33 26 -2 0 52 34 121 84 173 59 60 96 74 204 74 87 0 173 -33 312
-119 84 -53 85 -53 50 -16 -19 20 -63 52 -97 72 -35 19 -63 40 -63 47 0 17
-48 60 -89 81 -47 24 -173 29 -232 10z"/>
<path d="M2711 3327 c-30 -15 -39 -37 -16 -37 13 0 15 -3 6 -13 -13 -16 -44
-145 -38 -161 2 -6 14 21 26 60 29 99 49 121 114 129 62 8 120 -9 272 -80 54
-25 100 -44 102 -41 8 8 -166 112 -225 133 -71 26 -200 31 -241 10z"/>
<path d="M2816 3207 c-74 -43 -95 -94 -96 -229 0 -107 17 -107 22 0 3 70 9 96
27 125 41 66 121 89 206 59 75 -26 211 -111 266 -165 37 -36 54 -47 69 -42 21
7 28 35 9 35 -5 0 -8 4 -5 8 5 8 -28 42 -40 42 -3 0 -28 20 -54 43 -85 76
-245 148 -329 147 -20 -1 -54 -11 -75 -23z"/>
<path d="M1891 3173 c-59 -21 -114 -79 -140 -147 -22 -59 -28 -146 -11 -146 6
0 10 13 10 29 0 16 10 54 21 85 29 75 89 130 157 145 70 15 184 -7 277 -53 38
-19 71 -33 73 -31 5 4 -97 78 -128 92 l-25 12 25 1 c25 2 25 2 -5 15 -41 19
-197 18 -254 -2z"/>
<path d="M2881 3085 c-37 -43 -41 -88 -10 -140 64 -108 229 -72 229 50 0 70
-63 125 -143 125 -39 0 -49 -5 -76 -35z m147 -11 c12 -8 22 -26 22 -39 0 -51
-70 -53 -91 -3 -11 27 -10 32 6 44 24 18 35 18 63 -2z"/>
<path d="M1916 3059 c-52 -35 -100 -100 -117 -159 -7 -25 -17 -51 -23 -58 -7
-9 -6 -16 3 -21 9 -6 8 -10 -6 -15 -17 -7 -17 -8 1 -22 11 -8 14 -14 8 -14 -7
0 -12 -4 -12 -10 0 -5 20 -10 45 -10 l46 0 -7 50 c-11 82 16 149 84 211 l57
51 65 -4 c50 -3 84 -12 145 -41 44 -21 88 -45 97 -54 10 -9 18 -11 18 -5 0 16
-146 110 -189 122 -21 5 -69 9 -106 8 -55 -1 -75 -7 -109 -29z"/>
<path d="M2392 2989 c18 -22 34 -36 36 -30 5 14 -39 71 -55 71 -9 0 -1 -16 19
-41z"/>
<path d="M2024 2973 c-104 -52 -74 -243 38 -243 45 0 94 19 126 49 26 26 31
105 8 150 -31 58 -105 78 -172 44z m120 -35 c22 -31 20 -45 -8 -63 -45 -30
-91 20 -59 64 19 27 48 27 67 -1z"/>
<path d="M2428 2843 c5 -86 -15 -176 -58 -263 -38 -76 -44 -111 -27 -153 17
-39 20 -41 61 -51 l29 -7 -31 29 c-28 26 -32 36 -32 83 0 59 30 115 75 139 31
17 33 35 3 20 -20 -10 -21 -9 -6 2 9 7 25 19 35 25 15 11 13 11 -10 3 -16 -6
-30 -10 -31 -10 -2 0 3 24 11 53 15 56 10 146 -10 184 -10 19 -12 10 -9 -54z"/>
<path d="M3255 2893 c-13 -15 -47 -34 -90 -49 -53 -18 -63 -24 -40 -24 17 0
37 -4 45 -10 30 -18 122 55 113 90 -3 11 -6 20 -7 19 0 0 -10 -12 -21 -26z"/>
<path d="M1826 2701 c-3 -5 1 -12 10 -15 12 -5 14 -9 5 -20 -14 -16 -1 -29 52
-51 42 -17 71 -20 62 -5 -4 6 9 10 32 11 l38 0 -41 13 c-23 7 -67 27 -97 45
-31 17 -58 27 -61 22z m99 -71 c3 -5 2 -10 -4 -10 -5 0 -13 5 -16 10 -3 6 -2
10 4 10 5 0 13 -4 16 -10z"/>
<path d="M3240 2660 c8 -5 20 -10 25 -10 6 0 3 5 -5 10 -8 5 -19 10 -25 10 -5
0 -3 -5 5 -10z"/>
<path d="M3050 2649 c29 -19 70 -39 70 -34 0 7 -63 45 -75 45 -5 0 -3 -5 5
-11z"/>
<path d="M3130 2640 c19 -11 40 -19 45 -19 6 0 -6 8 -25 19 -19 11 -39 19 -45
19 -5 0 6 -8 25 -19z"/>
<path d="M3190 2645 c33 -19 50 -18 26 0 -11 8 -27 15 -35 15 -10 -1 -7 -6 9
-15z"/>
<path d="M2751 2598 c26 -37 30 -50 26 -90 -3 -35 -1 -45 9 -41 36 14 27 82
-17 136 -42 51 -56 47 -18 -5z"/>
<path d="M3031 2617 c2 -1 13 -9 24 -17 19 -14 19 -14 6 3 -7 9 -18 17 -24 17
-6 0 -8 -1 -6 -3z"/>
<path d="M2636 2491 c-22 -25 -7 -35 40 -26 26 4 34 11 32 23 -5 25 -50 27
-72 3z"/>
<path d="M2053 2488 c-6 -7 -16 -24 -22 -38 -12 -24 -12 -24 4 -5 20 24 37 55
32 55 -3 0 -9 -6 -14 -12z"/>
<path d="M1992 2454 c-12 -19 -20 -34 -18 -34 7 0 49 61 44 65 -2 2 -13 -12
-26 -31z"/>
<path d="M2080 2470 c-6 -11 -8 -20 -6 -20 3 0 10 9 16 20 6 11 8 20 6 20 -3
0 -10 -9 -16 -20z"/>
<path d="M2442 2478 c-7 -7 -12 -25 -12 -41 l0 -28 27 21 c19 14 35 19 53 15
l25 -5 -28 25 c-31 28 -47 31 -65 13z"/>
<path d="M1946 2444 c-10 -14 -15 -28 -13 -31 3 -2 13 7 23 21 9 15 14 29 12
32 -3 2 -13 -7 -22 -22z"/>
<path d="M1906 2434 c-10 -14 -16 -28 -13 -30 2 -3 12 7 21 22 10 14 16 28 13
30 -2 3 -12 -7 -21 -22z"/>
<path d="M2820 2273 c0 -11 57 -93 65 -93 8 0 -8 28 -39 69 -14 19 -26 30 -26
24z"/>
<path d="M2431 2255 c-1 -5 -22 -37 -46 -70 -49 -64 -57 -107 -21 -113 16 -3
18 0 12 22 -5 21 2 41 30 86 20 32 34 65 31 72 -3 7 -6 9 -6 3z"/>
<path d="M2578 2165 c-71 -39 -89 -146 -31 -192 22 -18 41 -23 90 -23 56 0 63
3 87 31 31 37 32 59 5 116 -36 74 -92 99 -151 68z m70 -17 c20 -20 14 -25 -28
-24 -22 0 -40 1 -40 2 0 2 7 10 16 18 19 19 36 20 52 4z"/>
<path d="M2638 1818 c-23 -18 -30 -19 -60 -9 -30 11 -32 10 -17 -4 21 -22 82
-35 103 -23 9 5 35 7 57 3 26 -5 45 -3 55 6 12 10 6 15 -38 30 -65 23 -67 23
-100 -3z"/>
<path d="M2634 1674 c-18 -14 -18 -15 6 -8 14 4 43 11 65 15 l40 6 -46 2 c-27
1 -53 -5 -65 -15z"/>
<path d="M3293 1271 c-9 -36 -8 -49 1 -59 11 -11 15 -5 26 32 10 38 10 47 -2
59 -12 13 -16 8 -25 -32z"/>
<path d="M3256 1105 c-9 -26 -7 -32 5 -12 6 10 9 21 6 23 -2 3 -7 -2 -11 -11z"/>
<path d="M2849 1038 c92 -87 170 -117 214 -84 26 20 21 25 -22 19 -49 -7 -108
19 -183 80 -81 66 -85 58 -9 -15z"/>
<path d="M2696 934 c-6 -15 18 -30 46 -29 28 0 22 17 -11 31 -24 10 -30 10
-35 -2z m34 -14 c0 -5 -2 -10 -4 -10 -3 0 -8 5 -11 10 -3 6 -1 10 4 10 6 0 11
-4 11 -10z"/>
</g>
</svg>
