<?xml version="1.0" standalone="no"?>
<!DOCTYPE svg PUBLIC "-//W3C//DTD SVG 20010904//EN"
 "http://www.w3.org/TR/2001/REC-SVG-20010904/DTD/svg10.dtd">
<svg version="1.0" xmlns="http://www.w3.org/2000/svg"
 width="512.000000pt" height="512.000000pt" viewBox="0 0 512.000000 512.000000"
 preserveAspectRatio="xMidYMid meet">

<g transform="translate(0.000000,512.000000) scale(0.100000,-0.100000)"
fill="#000000" stroke="none">
<path d="M2375 4779 c-163 -25 -254 -78 -423 -248 -175 -175 -200 -232 -219
-506 -6 -103 15 -195 68 -294 22 -40 38 -74 37 -75 -2 -1 -19 -7 -39 -14 -33
-11 -41 -10 -72 8 -19 11 -47 39 -62 60 -39 56 -119 126 -176 156 -27 13 -86
36 -131 50 -69 22 -101 27 -188 26 -173 -2 -312 -48 -429 -146 -27 -22 -68
-54 -91 -71 -48 -34 -80 -75 -100 -125 -8 -19 -42 -66 -76 -103 -107 -116
-130 -229 -78 -372 17 -45 29 -104 33 -165 5 -64 15 -109 29 -139 17 -34 19
-48 10 -64 -6 -12 -9 -52 -6 -97 6 -102 62 -222 137 -293 31 -30 51 -57 51
-70 0 -54 -98 -161 -202 -221 -26 -15 -49 -35 -52 -44 -16 -50 -36 -219 -36
-297 -1 -174 -37 -359 -100 -511 -52 -125 -56 -168 -23 -234 30 -61 76 -100
168 -145 165 -80 332 -105 473 -71 59 14 63 13 56 -2 -32 -77 -36 -98 -25
-148 13 -59 66 -142 135 -214 81 -84 78 -84 262 -46 87 18 189 45 226 60 48
19 72 24 85 18 10 -5 51 -17 91 -27 58 -14 75 -15 87 -5 13 11 14 10 10 -1 -4
-12 24 -20 132 -39 123 -22 166 -25 393 -25 202 0 276 4 355 18 55 10 107 21
115 24 8 3 20 5 26 4 16 -2 176 49 190 60 7 6 15 26 19 45 3 20 22 57 41 84
19 27 42 70 52 97 13 37 17 43 20 25 5 -34 -25 -116 -59 -158 -16 -20 -29 -43
-29 -50 0 -47 339 -83 470 -50 36 10 85 21 110 27 53 11 87 33 117 78 l22 32
16 -30 c20 -40 53 -41 131 -1 66 33 182 122 216 166 20 25 23 39 22 110 -1 45
-7 106 -13 134 -6 29 -10 54 -9 56 2 1 34 -8 72 -21 133 -45 292 -41 343 7 32
30 51 97 63 222 10 97 9 122 -9 220 -11 61 -28 163 -36 226 -9 63 -35 187 -57
275 -80 319 -88 379 -63 490 9 42 14 87 11 99 -6 24 -76 64 -151 86 -22 7 -43
15 -47 19 -9 9 75 261 105 313 14 24 28 58 32 76 4 18 13 32 21 32 23 0 60 92
90 223 l28 118 -22 51 -21 51 24 41 c13 22 29 61 35 85 15 55 15 185 1 238
-11 42 -125 203 -170 240 -39 33 -202 102 -268 114 -32 6 -80 18 -108 27 -38
13 -87 17 -210 17 -144 0 -164 -2 -205 -22 -25 -12 -72 -29 -106 -38 -190 -52
-340 -292 -375 -604 -5 -47 -11 -87 -13 -89 -2 -2 -27 4 -54 14 l-50 18 24 31
c29 38 62 113 81 180 7 27 18 136 24 241 10 170 9 198 -6 250 -23 82 -73 178
-117 229 -21 24 -38 47 -38 52 0 14 -75 89 -125 123 -27 18 -98 55 -159 82
-123 54 -196 65 -311 47z m-5 -288 c0 28 31 -16 36 -52 4 -22 10 -39 13 -39 4
0 24 20 44 45 39 46 57 56 57 31 0 -23 40 -46 67 -40 18 5 23 2 24 -12 2 -40
-4 -71 -23 -115 l-19 -46 -72 -12 c-125 -19 -175 -21 -181 -5 -3 8 -20 14 -38
14 -18 1 -49 9 -68 18 -43 22 -104 99 -94 121 4 9 7 24 8 33 0 9 4 14 8 12 4
-3 8 3 8 12 0 16 1 16 18 1 28 -25 76 -21 128 13 36 23 51 27 65 19 14 -7 19
-6 19 2z m322 -112 c13 -44 34 -57 43 -28 4 11 9 18 12 16 10 -11 -19 -48 -33
-43 -9 3 -12 1 -9 -5 10 -16 -14 -37 -35 -32 -11 3 -27 0 -35 -7 -13 -11 -15
-8 -15 21 0 18 5 59 12 91 11 55 13 57 30 41 10 -9 23 -33 30 -54z m-122 -366
c-14 -9 -30 -24 -37 -33 -20 -26 -74 -272 -72 -330 1 -27 3 -23 10 20 12 84
29 151 46 192 21 49 67 70 164 76 l76 4 41 -37 c38 -33 71 -41 56 -12 -3 7 6
-1 19 -17 35 -40 26 -70 -18 -62 -18 4 -53 2 -76 -3 -39 -9 -46 -7 -67 12 -29
27 -113 30 -139 4 -15 -15 -12 -16 43 -15 67 1 104 -16 104 -48 0 -34 43 -66
89 -66 22 0 50 6 62 12 22 12 22 12 15 -61 -21 -227 -80 -433 -165 -575 l-24
-41 -116 5 c-125 5 -206 -9 -285 -50 l-40 -20 -48 53 c-76 84 -146 186 -168
247 -23 60 -54 231 -65 352 -3 41 -15 108 -26 148 l-20 73 52 64 c29 36 54 65
55 65 1 0 0 -18 -3 -40 -6 -46 -3 -48 35 -20 26 19 92 36 92 24 0 -3 -10 -14
-22 -24 -36 -29 -14 -34 27 -6 l37 26 41 -25 c23 -13 49 -31 59 -39 26 -23 32
-20 14 6 -9 13 -32 32 -52 44 l-36 22 44 7 c23 4 53 13 65 21 12 8 24 10 26 6
6 -10 27 -162 36 -267 l8 -90 1 80 c1 44 -5 130 -13 190 -8 61 -15 111 -15
111 0 1 10 -1 23 -3 12 -2 54 5 92 15 91 25 105 26 75 5z m1766 -103 c42 -41
26 -150 -23 -150 -7 0 -13 -6 -13 -13 0 -8 -19 -22 -42 -32 -24 -10 -50 -25
-59 -32 -14 -11 -18 -11 -29 2 -19 22 -35 18 -49 -12 l-13 -28 -14 28 c-16 30
-19 29 -76 -15 -39 -31 -85 -44 -106 -30 -19 13 -17 66 6 142 11 36 23 82 27
104 l6 38 50 -4 c30 -3 62 -14 80 -27 l30 -22 13 33 c20 47 24 49 52 21 20
-20 28 -22 39 -13 8 7 15 20 15 30 0 15 6 16 41 10 22 -4 51 -18 65 -30z
m-456 -25 c6 -8 12 -29 12 -47 0 -46 -31 -160 -48 -180 -36 -39 -89 -26 -99
24 -14 71 -14 71 -41 49 -35 -28 -58 -17 -72 33 -20 78 16 117 73 80 31 -20
60 -13 110 26 43 34 48 35 65 15z m-992 -114 c5 -31 -21 -51 -64 -51 -31 0
-84 32 -84 51 0 17 43 28 95 26 45 -2 50 -5 53 -26z m56 -273 c-15 -64 -61
-175 -69 -167 -2 3 6 53 18 112 20 101 25 110 59 116 3 0 0 -27 -8 -61z
m-1005 -39 c17 -14 47 -116 37 -126 -11 -11 -47 62 -66 130 -23 88 -25 110 -4
52 8 -22 23 -47 33 -56z m1107 35 c56 -19 69 -28 60 -43 -9 -14 -126 29 -126
46 0 17 6 16 66 -3z m1454 -68 c9 -28 7 -51 -15 -137 -14 -57 -33 -124 -42
-148 l-17 -44 -8 29 c-12 39 0 112 23 150 20 34 25 89 9 99 -15 9 -12 43 6 70
19 30 29 26 44 -19z m-3346 -7 c14 -74 -17 -166 -71 -209 -34 -27 -61 -25 -85
5 -25 32 -36 31 -80 -5 l-36 -30 -12 30 c-18 44 -46 48 -157 24 -30 -6 -33 -4
-33 19 0 29 -15 44 -50 49 -19 2 -26 10 -28 31 -3 22 5 36 33 63 20 19 44 34
53 35 9 0 41 4 70 8 29 4 55 4 58 -1 7 -11 61 -10 106 2 33 9 42 8 67 -11 33
-24 69 -21 103 10 26 25 55 16 62 -20z m111 5 c14 -15 25 -35 25 -46 0 -15 5
-17 30 -13 30 5 30 5 30 -42 0 -56 -21 -83 -64 -83 -19 0 -43 -10 -60 -25 -38
-32 -50 -20 -32 32 8 23 18 78 22 122 3 45 11 81 16 81 5 0 20 -12 33 -26z
m3175 -87 c0 -32 -51 -90 -99 -112 -33 -15 -46 -16 -66 -7 -33 15 -32 34 6 72
39 39 96 69 132 70 22 0 27 -4 27 -23z m-900 -24 c-11 -14 -20 -32 -20 -40 0
-8 -5 -13 -11 -11 -13 4 -12 8 6 53 10 23 20 33 30 29 13 -5 12 -10 -5 -31z
m529 27 c36 0 36 -1 15 -18 -21 -17 -44 -70 -44 -102 0 -29 28 -31 108 -8 74
22 76 23 42 29 l-35 6 38 2 c31 1 37 -2 37 -19 0 -35 75 -54 120 -30 17 9 20
6 26 -25 12 -65 0 -150 -30 -207 -15 -29 -52 -127 -82 -217 -56 -168 -110
-285 -150 -322 -53 -50 -199 -13 -355 90 -41 27 -76 47 -78 45 -8 -8 92 -103
121 -115 37 -15 20 -29 -37 -29 -22 0 -47 -5 -55 -10 -11 -8 -7 -10 20 -10 72
0 72 1 48 -39 -25 -42 -46 -66 -29 -34 23 45 10 36 -18 -12 -16 -28 -37 -58
-47 -65 -10 -8 -15 -10 -11 -4 4 6 -2 19 -13 29 -12 10 -20 13 -20 7 0 -7 5
-12 12 -12 6 0 8 -3 5 -6 -9 -9 11 -44 26 -44 13 0 43 40 39 53 -1 4 3 7 9 7
5 0 7 6 3 13 -4 6 14 -8 40 -33 26 -25 46 -53 46 -65 -1 -27 -24 -89 -44 -121
-14 -21 -20 -23 -32 -13 -31 25 -136 239 -117 239 2 0 -5 13 -15 28 -21 29
-52 133 -50 167 1 11 -2 41 -6 68 -6 39 -5 47 8 47 9 0 33 7 55 16 31 12 45
27 65 65 l24 49 32 -37 31 -38 -25 55 c-14 30 -26 62 -26 71 0 8 15 33 33 55
62 72 71 108 37 139 -13 12 -18 26 -14 44 3 16 -6 47 -24 84 l-29 57 74 0 c41
0 72 4 69 9 -6 9 36 31 59 31 19 0 35 32 35 67 l-1 28 -14 -30 -13 -30 -1 33
c-1 30 -4 33 -23 27 -13 -3 -3 5 22 19 30 17 55 24 74 21 16 -3 45 -5 65 -5z
m176 -40 c-3 -5 -16 -10 -28 -9 -21 0 -21 1 -2 9 28 12 37 12 30 0z m-659 -40
c14 0 41 -7 62 -16 l37 -16 -33 -14 c-31 -14 -35 -13 -62 10 -16 13 -35 26
-41 28 -8 3 -9 9 -4 18 6 10 10 11 13 2 2 -7 15 -12 28 -12z m-73 -34 c44 -16
79 -44 71 -57 -3 -5 -17 -9 -32 -9 -15 0 -36 -7 -46 -15 -38 -29 -136 -11
-136 25 0 32 46 70 85 69 11 0 37 -6 58 -13z m196 -105 c31 -59 38 -95 22
-120 -12 -18 -31 -5 -31 22 0 27 -11 42 -29 42 -8 0 -25 19 -37 43 l-22 42 21
15 c34 24 42 19 76 -44z m-903 -8 c-3 -21 -5 -40 -5 -43 -1 -3 -6 2 -11 10 -6
9 -10 10 -10 3 0 -6 -3 -19 -7 -29 -5 -13 -3 -16 9 -11 12 4 14 1 11 -14 -5
-18 -42 -27 -56 -12 -7 6 27 67 50 91 7 7 13 20 13 28 0 8 2 14 5 14 2 0 3
-17 1 -37z m790 -8 c20 -31 25 -156 7 -162 -9 -3 -12 7 -11 34 1 32 -14 76
-50 146 -10 20 40 4 54 -18z m-317 1 c15 -8 33 -21 40 -30 19 -23 -18 -39 -58
-25 -25 9 -36 8 -55 -5 -24 -15 -24 -15 -16 15 17 60 39 70 89 45z m245 -25
c38 -42 51 -158 19 -168 -7 -3 -10 3 -7 15 6 21 -26 83 -64 123 -23 26 -23 28
-5 38 26 15 38 13 57 -8z m-1405 -56 l0 -20 -9 20 c-5 11 -9 27 -9 35 -1 13 0
13 9 0 5 -8 9 -24 9 -35z m-1527 17 c14 -6 13 -11 -13 -40 l-29 -32 0 40 c0
41 7 46 42 32z m1616 -77 c-2 -2 -15 -6 -29 -10 -23 -6 -27 -2 -37 33 -19 63
-14 67 29 22 22 -23 39 -43 37 -45z m849 63 c-3 -8 -6 -5 -6 6 -1 11 2 17 5
13 3 -3 4 -12 1 -19z m413 -25 c17 -26 30 -55 30 -64 0 -16 -88 -75 -97 -65
-8 8 21 45 39 49 24 7 23 27 -1 27 -11 0 -21 8 -23 18 -3 12 -11 4 -27 -27
-17 -32 -26 -40 -34 -32 -6 6 -18 11 -26 11 -11 0 -9 -5 7 -20 25 -24 42 -79
42 -138 0 -31 4 -42 13 -39 8 2 12 25 12 65 0 55 2 62 20 62 11 1 31 7 45 15
14 8 39 14 56 15 17 0 37 7 44 15 10 12 16 13 26 4 17 -14 18 -55 3 -65 -8 -4
-8 -9 0 -17 15 -15 81 49 81 79 0 25 28 62 50 65 53 6 53 -23 2 -85 -23 -28
-47 -73 -60 -116 -28 -86 -51 -106 -134 -115 -71 -9 -134 -29 -159 -51 -15
-14 -19 -11 -45 33 -33 57 -99 149 -114 158 -16 10 -12 33 17 99 37 85 69 125
117 147 65 30 82 25 116 -28z m204 -43 c-7 -8 -16 -27 -19 -42 -4 -16 -12 -28
-17 -28 -6 0 -8 10 -5 23 3 12 11 44 18 70 l13 48 11 -28 c10 -22 10 -31 -1
-43z m-2880 30 c72 -34 190 -60 274 -60 44 0 53 -3 44 -12 -21 -21 -14 -25 52
-31 72 -7 163 -40 228 -84 64 -44 68 -46 68 -30 0 13 -93 111 -135 141 -18 13
-16 14 20 5 22 -5 81 -8 131 -7 49 1 95 -2 102 -6 7 -4 12 -20 12 -35 0 -51
60 -211 79 -211 15 0 39 35 70 105 18 38 42 80 54 93 44 47 109 66 135 40 19
-19 14 -28 -14 -28 -40 0 -88 -35 -128 -93 -44 -65 -63 -114 -48 -129 8 -8 16
0 28 26 20 41 37 42 42 2 4 -34 -21 -74 -54 -86 -29 -12 -32 -40 -3 -40 53 0
94 57 83 115 -3 19 -12 39 -20 46 -20 17 -18 25 21 68 46 51 90 70 112 48 14
-14 13 -19 -8 -54 -29 -47 -62 -116 -78 -166 -17 -49 -77 -106 -113 -107 -18
0 -37 11 -57 33 -25 25 -31 28 -31 14 0 -10 4 -26 10 -36 7 -13 2 -37 -15 -84
-63 -176 -168 -354 -249 -423 -44 -38 -56 -42 -56 -17 0 11 -18 -3 -49 -38
-87 -97 -208 -141 -293 -106 -34 14 -98 86 -98 110 0 5 -11 18 -24 28 -63 50
-153 186 -196 297 -18 49 -80 273 -80 293 0 5 11 9 25 9 29 0 43 36 26 69 -10
18 -8 21 16 28 16 4 65 8 110 8 44 0 79 3 77 7 -2 3 -25 13 -51 22 -54 18
-125 21 -154 5 -20 -10 -20 -9 -14 48 4 35 14 63 24 71 15 13 64 11 108 -4 17
-6 17 -6 2 10 -36 38 -150 29 -177 -15 -12 -19 -11 -20 6 -15 18 6 19 4 10
-39 -8 -35 -7 -50 4 -62 11 -15 11 -16 -7 -9 -40 15 -73 18 -79 7 -10 -15 -46
-14 -46 2 0 7 6 21 13 32 14 17 15 17 45 0 17 -11 34 -17 36 -14 3 3 -1 32 -8
64 -8 33 -16 79 -20 101 -5 39 -4 42 24 54 17 7 53 11 83 8 63 -5 120 -40 167
-103 18 -25 35 -43 37 -41 2 2 -3 21 -12 42 -20 48 -80 121 -119 145 -48 29
-13 22 58 -11z m2461 20 c3 -6 -2 -22 -13 -38 -10 -15 -22 -36 -26 -47 -6 -16
-9 -17 -16 -5 -13 20 -12 57 0 81 11 20 45 26 55 9z m-1122 -30 c3 -11 3 -20
1 -20 -2 0 -8 9 -14 20 -6 11 -7 20 -2 20 6 0 12 -9 15 -20z m208 -276 c8 -4
41 -8 74 -7 33 1 63 -4 67 -10 4 -7 24 -6 66 4 l60 15 31 -28 c39 -34 55 -35
83 -3 15 17 32 25 54 25 31 0 34 -3 49 -52 19 -65 19 -106 0 -151 -20 -47 -31
-53 -50 -23 -23 35 -45 40 -75 18 -26 -20 -26 -20 -47 4 -28 31 -68 40 -101
23 -15 -8 -29 -17 -32 -20 -13 -17 -77 -49 -97 -49 -13 0 -31 13 -44 31 -19
28 -24 30 -34 16 -9 -13 -19 -7 -68 44 -54 55 -69 90 -47 104 6 3 10 13 10 22
0 40 61 62 101 37z m-1732 -30 c32 -26 41 -59 19 -67 -18 -6 -66 20 -78 42
-28 53 8 68 59 25z m2306 -14 c4 1 16 -13 26 -30 12 -20 26 -30 37 -28 25 5
52 -35 52 -76 0 -32 -3 -36 -26 -36 -16 0 -37 -13 -58 -34 -33 -35 -74 -53
-100 -43 -13 5 -12 14 5 61 10 31 24 90 30 132 7 42 15 71 19 64 4 -6 11 -11
15 -10z m-2381 -19 c9 -16 22 -31 31 -34 8 -4 15 -18 15 -35 0 -16 9 -61 19
-101 19 -71 19 -72 0 -55 -40 36 -83 130 -103 227 -9 37 19 36 38 -2z m2446
-11 c0 -5 -2 -10 -4 -10 -3 0 -8 5 -11 10 -3 6 -1 10 4 10 6 0 11 -4 11 -10z
m1455 -100 c2 -4 -4 -46 -14 -93 -24 -111 -17 -179 43 -410 51 -198 82 -350
91 -457 6 -67 15 -118 32 -174 3 -12 1 -16 -6 -12 -17 11 -48 132 -65 260 -10
66 -37 199 -62 295 -24 97 -53 226 -64 287 -16 96 -17 117 -6 155 23 76 27
137 10 154 -9 8 -20 12 -26 9 -7 -4 -8 -2 -4 4 7 11 61 -2 71 -18z m-415 -167
c1 -24 -65 -211 -72 -207 -4 3 -17 23 -28 45 l-21 39 32 48 c18 26 39 55 47
65 15 17 42 23 42 10z m-3340 -153 c0 -26 -127 -150 -184 -180 -43 -24 -45
-26 -56 -90 -7 -36 -16 -139 -20 -230 -11 -207 -39 -351 -96 -495 -24 -62 -44
-128 -44 -146 0 -84 105 -162 310 -228 49 -17 176 -25 244 -17 l57 8 -32 56
-31 57 40 -45 c22 -25 44 -41 48 -37 5 5 14 27 21 50 l11 42 1 -45 c1 -79 -4
-86 -74 -104 -131 -33 -277 -12 -440 64 -168 77 -213 155 -166 283 67 179 81
221 94 297 18 98 26 170 32 290 6 121 15 209 26 252 8 30 19 42 64 67 58 33
160 130 170 162 8 23 25 16 25 -11z m1469 -6 c2 -2 -2 -10 -9 -19 -9 -11 -22
-14 -49 -9 -44 8 -43 7 -36 27 5 11 16 14 48 10 23 -3 44 -7 46 -9z m402 -14
c24 -11 54 -20 66 -20 12 0 25 -5 29 -11 4 -8 0 -9 -15 -4 -28 9 -27 -8 2 -24
20 -11 25 -27 41 -124 10 -62 20 -121 23 -132 l6 -20 7 20 c11 30 -1 154 -21
211 -18 55 -13 74 22 74 28 0 31 -17 7 -34 -30 -21 -21 -26 32 -16 43 8 116 1
154 -15 14 -6 18 -5 14 6 -2 7 -29 23 -59 36 -53 22 -53 22 -19 22 24 0 45 -9
68 -28 l32 -28 -20 -23 c-26 -30 -14 -38 61 -41 71 -3 73 -4 101 -47 23 -35
24 -42 17 -148 -19 -279 -102 -449 -285 -579 -35 -25 -64 -49 -64 -52 0 -3 11
-3 24 -1 l25 5 -29 -41 c-15 -23 -49 -63 -74 -91 -25 -27 -46 -53 -46 -57 0
-5 -6 -8 -14 -8 -8 0 -18 -5 -22 -12 -5 -8 -2 -9 9 -5 24 9 -132 -201 -156
-212 -4 -1 -12 -8 -17 -15 -31 -40 -83 -96 -89 -96 -6 0 -42 131 -41 152 0 3
14 11 31 17 25 9 29 14 24 32 -5 15 -4 19 5 14 9 -5 10 -2 5 14 -6 20 -3 21
44 21 28 0 51 4 51 9 0 5 9 7 19 4 24 -6 115 33 106 46 -4 7 -14 6 -30 -1 -13
-6 -22 -16 -18 -21 4 -7 -1 -8 -12 -4 -9 4 -23 3 -29 -1 -13 -10 -34 -13 -90
-12 -41 1 -93 21 -138 53 -14 11 -31 16 -37 13 -7 -5 -8 -1 -5 9 5 11 0 18
-15 22 -11 3 -18 9 -15 14 3 5 1 9 -4 9 -9 0 -42 96 -42 124 0 9 -4 14 -10 11
-12 -7 -13 9 -4 54 4 17 13 31 20 31 17 0 17 4 4 28 -21 38 -72 166 -99 249
-16 48 -35 101 -42 117 l-14 30 -5 -29 -5 -28 -29 24 c-24 22 -27 30 -21 57
l7 32 26 -19 c50 -35 77 -31 92 14 12 36 3 126 -20 205 -5 19 -10 47 -10 63
l0 27 112 -6 c110 -7 111 -7 106 14 -5 17 -2 22 12 22 10 0 31 5 47 11 l28 12
-25 7 c-20 6 -16 8 22 9 26 1 59 -4 74 -9 l27 -11 -21 -22 c-30 -32 -52 -93
-52 -142 0 -73 24 -108 26 -37 1 54 20 111 53 163 23 37 37 49 75 60 53 15 62
34 12 25 -27 -5 -35 -3 -40 11 -3 10 -9 24 -12 31 -8 16 -4 15 47 -8z m-945
-122 c5 -150 5 -281 -1 -287 -3 -2 -28 16 -56 41 l-52 44 -1 77 c-1 42 -1 77
0 77 0 0 17 -16 38 -35 21 -19 46 -35 55 -35 14 0 14 2 1 10 -8 5 -10 10 -5
10 6 0 -12 14 -40 31 -27 18 -51 33 -53 34 -1 1 21 39 49 84 29 45 54 79 57
77 2 -3 6 -60 8 -128z m704 115 c-19 -9 -53 -24 -74 -34 -34 -15 -42 -16 -59
-4 -18 13 -17 14 19 34 26 13 58 20 94 20 l55 0 -35 -16z m175 -18 c25 -21 28
-27 15 -35 -19 -12 -40 -13 -40 -1 0 12 -56 31 -94 31 l-31 1 25 14 c39 22 91
18 125 -10z m-297 -49 c35 -21 61 -41 58 -44 -11 -10 -131 -1 -188 15 -68 18
-87 35 -67 59 10 12 27 15 74 12 48 -3 73 -11 123 -42z m812 24 c0 -17 -34
-20 -56 -5 -13 9 -24 17 -24 18 0 1 18 1 40 -1 22 -2 40 -8 40 -12z m208 4
c61 -43 -3 -77 -155 -82 -142 -5 -151 11 -33 59 104 41 153 48 188 23z m1008
-166 c-3 -24 -11 -100 -17 -170 -11 -108 -15 -128 -29 -128 -19 0 -16 39 14
182 9 42 16 88 16 102 0 26 9 56 17 56 2 0 2 -19 -1 -42z m-2312 10 c11 -43 6
-63 -19 -75 -24 -11 -25 -10 -25 24 0 60 31 97 44 51z m1941 -88 c10 -11 26
-20 35 -20 21 0 32 -24 24 -54 -4 -18 13 -38 111 -121 85 -72 114 -103 109
-114 -3 -9 -9 -43 -13 -76 -7 -59 -33 -125 -50 -125 -4 0 -18 9 -31 20 -17 15
-37 20 -78 20 -49 0 -63 -6 -143 -56 -49 -31 -91 -55 -93 -53 -3 2 25 35 60
73 66 69 73 90 41 110 -18 11 -71 -3 -215 -60 -35 -14 -66 -23 -69 -20 -7 7
143 81 206 101 55 19 76 43 65 77 -6 19 -11 20 -68 14 -33 -3 -103 -18 -154
-32 -52 -14 -99 -23 -104 -22 -32 11 171 88 295 113 62 12 89 79 43 109 -40
25 -98 30 -159 12 -108 -31 -135 -13 -34 24 57 21 68 22 137 12 42 -6 79 -7
84 -2 5 5 -1 20 -13 36 -35 45 -23 75 14 34z m-1900 -59 c12 -36 13 -55 5 -75
-25 -66 1 -136 55 -150 19 -5 28 -17 38 -54 17 -55 15 -62 -20 -62 -65 0 -149
142 -162 277 -7 66 -7 69 21 96 15 16 32 26 37 23 5 -4 17 -28 26 -55z m-591
22 l55 -27 -6 -80 c-3 -45 -7 -83 -9 -85 -12 -14 -164 144 -164 170 0 5 58 48
67 49 2 0 27 -12 57 -27z m1830 -265 c-55 -109 -137 -218 -163 -218 -21 0 -19
18 8 60 15 25 34 62 41 83 8 20 19 37 26 37 24 0 63 60 70 108 3 26 14 55 23
66 15 17 16 16 19 -32 2 -39 -3 -63 -24 -104z m-39 70 c-6 -27 -42 -88 -52
-88 -1 0 2 12 7 26 6 14 10 35 10 48 0 22 17 46 33 46 5 0 5 -14 2 -32z
m-2125 -56 c0 -32 -27 -83 -58 -109 -14 -12 -24 -25 -20 -28 3 -3 43 -8 89
-10 46 -3 111 -7 143 -11 70 -6 203 -47 231 -70 17 -13 17 -15 2 -10 -45 14
-178 37 -199 34 -15 -2 -24 -11 -26 -25 -4 -28 33 -53 96 -64 69 -12 162 -41
162 -50 0 -4 -4 -10 -8 -13 -7 -4 -200 33 -249 49 -19 6 -23 4 -23 -13 0 -17
14 -23 98 -42 137 -32 128 -28 109 -47 -14 -15 -21 -15 -84 0 -109 25 -139 28
-168 17 -28 -10 -30 -28 -4 -41 133 -70 171 -113 61 -70 -66 26 -94 28 -165 8
-31 -8 -65 -14 -75 -12 -9 2 -34 7 -54 10 -21 3 -37 9 -36 13 4 14 -29 65 -36
54 -3 -6 1 -18 10 -26 8 -9 13 -16 9 -16 -9 0 50 -83 74 -102 18 -15 20 -25
14 -65 -3 -27 -8 -50 -10 -53 -17 -19 -97 155 -118 258 -15 71 -13 97 4 41 8
-28 9 -30 9 -9 0 14 -6 41 -14 60 -8 20 -12 25 -10 11 4 -17 2 -21 -6 -13 -7
7 1 39 27 106 33 86 43 101 94 145 32 28 70 70 86 95 30 47 45 46 45 -2z
m3243 8 c47 -11 71 -10 128 0 58 11 72 11 82 0 8 -8 8 -11 1 -7 -7 4 -32 -2
-55 -13 -49 -22 -114 -25 -172 -9 -22 6 -40 9 -42 7 -2 -2 -6 -34 -9 -72 -5
-65 -15 -102 -17 -60 0 10 -4 54 -8 97 -6 76 -6 78 14 74 11 -3 46 -11 78 -17z
m-124 -245 c-6 -71 -34 -149 -50 -139 -5 3 -7 9 -4 14 3 4 -2 11 -11 14 -10 4
-13 2 -8 -7 4 -6 -3 -3 -14 8 -26 25 -36 105 -11 89 8 -4 7 -9 -2 -15 -11 -7
-11 -9 1 -9 29 0 93 119 90 169 -5 64 4 79 9 16 3 -38 3 -101 0 -140z m-2384
35 c77 -36 259 -54 318 -31 36 14 34 15 40 -10 3 -12 3 -19 1 -16 -3 3 -20 1
-37 -5 -74 -23 -241 -2 -355 43 -32 13 -32 13 -95 -48 -34 -34 -118 -108 -185
-164 -68 -56 -133 -115 -145 -130 -18 -25 -62 -49 -90 -49 -13 0 57 65 212
197 63 54 149 130 190 170 80 76 78 75 146 43z m-90 -139 c3 -5 1 -12 -5 -16
-5 -3 -10 1 -10 9 0 18 6 21 15 7z m1252 -37 c25 -14 43 -27 41 -29 -2 -2 -20
0 -40 4 l-36 8 -76 -94 c-42 -52 -74 -98 -71 -104 4 -5 3 -8 -2 -7 -5 2 -38
-31 -73 -72 -36 -41 -73 -84 -82 -94 -27 -29 -22 -2 5 31 13 15 46 60 74 98
27 39 64 85 81 103 38 41 122 159 122 172 0 15 9 12 57 -16z m-743 -107 c5 4
6 0 2 -11 -4 -12 2 -30 19 -52 27 -35 32 -54 15 -54 -6 0 -30 -9 -52 -20 -23
-11 -44 -18 -47 -15 -5 6 18 180 27 205 4 10 10 2 17 -23 6 -21 15 -34 19 -30z
m1946 19 c0 -3 -4 -8 -10 -11 -5 -3 -10 -1 -10 4 0 6 5 11 10 11 6 0 10 -2 10
-4z m-2220 -57 c32 -15 87 -56 130 -96 80 -75 91 -103 21 -53 -47 35 -122 67
-198 85 -56 13 -63 11 -63 -17 0 -14 8 -18 38 -18 51 0 134 -33 214 -86 103
-67 121 -123 20 -59 -51 32 -114 48 -224 58 -35 3 -48 1 -48 -9 0 -21 19 -27
92 -30 72 -3 144 -30 198 -75 l25 -20 -35 6 c-19 3 -64 13 -100 21 -83 19
-194 16 -198 -6 -5 -28 22 -50 113 -89 49 -21 91 -43 93 -50 7 -22 -44 -11
-138 30 -93 41 -97 42 -216 43 -98 1 -121 -2 -120 -13 1 -8 -13 -18 -31 -23
-25 -6 -31 -12 -26 -26 6 -15 5 -15 -10 -3 -9 7 -14 17 -11 23 8 13 -16 39
-29 31 -6 -4 -8 0 -4 10 3 10 2 17 -4 17 -6 0 -7 5 -3 12 5 7 3 8 -6 3 -8 -5
-11 -3 -8 6 2 7 -3 45 -12 84 -9 38 -14 78 -12 87 4 20 213 144 287 171 72 26
192 19 265 -14z m-1005 -28 c-6 -5 -25 10 -25 20 0 5 6 4 14 -3 8 -7 12 -15
11 -17z m525 -17 c0 -8 -19 -13 -24 -6 -3 5 1 9 9 9 8 0 15 -2 15 -3z m-73
-54 c-37 -29 -70 -123 -64 -182 5 -61 -10 -63 -19 -2 -6 45 -2 92 12 128 6 16
4 18 -12 12 -10 -4 -50 -16 -89 -26 -81 -20 -118 -55 -175 -162 -27 -50 -34
-75 -35 -120 0 -66 -15 -62 -22 6 -6 52 9 98 60 178 44 68 84 108 117 115 14
2 72 20 130 38 128 40 129 40 97 15z m3110 14 c-3 -3 -12 -4 -19 -1 -8 3 -5 6
6 6 11 1 17 -2 13 -5z m-2260 -18 c-17 -13 -17 -16 3 -65 11 -29 20 -54 20
-56 0 -10 -59 -34 -64 -27 -3 5 -9 26 -14 48 -6 21 -13 47 -17 57 -5 12 -2 17
10 17 10 0 13 5 9 12 -4 7 -3 8 4 4 7 -4 22 0 34 8 27 19 40 21 15 2z m183
-40 c0 -3 -4 -8 -10 -11 -5 -3 -10 -1 -10 4 0 6 5 11 10 11 6 0 10 -2 10 -4z
m-1360 -26 c0 -5 -5 -10 -11 -10 -5 0 -7 5 -4 10 3 6 8 10 11 10 2 0 4 -4 4
-10z m350 -175 c11 -24 25 -44 31 -42 7 1 14 -5 16 -13 4 -13 3 -13 -6 0 -6 8
-11 10 -11 4 0 -18 68 -74 91 -74 18 0 20 -5 17 -42 -3 -39 -5 -43 -28 -41
-36 4 -114 92 -139 157 -28 75 -36 144 -20 181 12 30 12 30 20 -27 5 -32 17
-78 29 -103z m1205 45 c-3 -5 -11 -10 -16 -10 -6 0 -7 5 -4 10 3 6 11 10 16
10 6 0 7 -4 4 -10z m-1065 -129 c0 -14 -18 -23 -31 -15 -8 4 -7 9 2 15 18 11
29 11 29 0z m47 -118 c-3 -10 -5 -2 -5 17 0 19 2 27 5 18 2 -10 2 -26 0 -35z
m-7 -67 c0 -2 -7 -7 -16 -10 -8 -3 -12 -2 -9 4 6 10 25 14 25 6z"/>
<path d="M2620 3903 c-24 -9 -70 -44 -70 -52 0 -5 21 2 47 15 58 30 72 30 117
-1 27 -19 36 -21 36 -10 0 34 -85 65 -130 48z"/>
<path d="M2159 3855 c-19 -10 -36 -11 -65 -5 -47 11 -105 12 -120 2 -25 -16
-25 -50 -1 -77 18 -22 35 -29 74 -32 47 -5 54 -3 77 22 14 15 26 33 26 40 0 6
11 18 25 25 26 14 88 7 139 -15 36 -15 7 14 -34 35 -46 23 -85 25 -121 5z
m-61 -26 c31 -12 28 -36 -8 -54 -35 -18 -51 -19 -85 -3 -30 13 -45 56 -24 69
14 9 77 3 117 -12z"/>
<path d="M2235 3800 c-29 -7 -29 -8 10 -10 32 -1 36 -3 20 -10 -17 -7 -16 -9
10 -9 24 -1 31 4 32 19 2 22 -16 24 -72 10z"/>
<path d="M2548 3781 c8 -4 13 -12 13 -17 -1 -5 10 -10 25 -12 19 -3 24 0 19 9
-6 9 -1 11 19 7 32 -6 35 7 4 16 -35 9 -95 7 -80 -3z"/>
<path d="M2239 3601 c-23 -23 -39 -45 -35 -48 4 -4 25 12 48 35 23 23 39 44
35 48 -3 4 -25 -12 -48 -35z"/>
<path d="M2309 3613 c-5 -15 -9 -45 -7 -67 3 -35 7 -42 27 -44 14 -2 33 -15
44 -28 24 -31 48 -30 86 2 20 17 37 23 50 19 13 -4 24 1 35 17 41 58 -11 155
-55 102 -11 -13 -9 -14 14 -9 23 6 27 3 33 -21 9 -35 -5 -57 -39 -58 -14 -1
-37 -12 -50 -24 -30 -29 -38 -28 -71 7 -18 19 -34 27 -47 24 -18 -5 -19 -2
-14 23 11 50 13 53 36 47 19 -5 20 -4 10 16 -16 29 -39 26 -52 -6z"/>
<path d="M2577 3582 c21 -38 43 -61 43 -43 0 6 -14 25 -31 43 l-31 33 19 -33z"/>
<path d="M2237 3439 c-9 -5 -21 -7 -27 -4 -5 3 -14 -4 -20 -16 -12 -21 -7 -34
12 -34 6 0 27 -28 48 -63 54 -89 80 -107 157 -107 55 0 65 3 93 30 18 17 43
50 58 75 14 25 34 54 44 66 31 35 15 52 -45 47 -29 -3 -65 -9 -81 -14 -44 -14
-80 -11 -131 11 -52 22 -81 25 -108 9z m112 -44 c52 -17 60 -17 174 1 42 7 48
-5 15 -30 -13 -9 -17 -14 -9 -10 9 4 12 3 8 -4 -4 -5 -16 -8 -27 -5 -12 3 -20
0 -20 -6 0 -7 5 -9 10 -6 6 3 10 2 10 -4 0 -11 -58 -26 -67 -17 -4 3 3 6 15 6
12 0 22 3 22 8 0 4 -27 5 -60 4 -33 -2 -60 -8 -60 -13 0 -6 -5 -7 -10 -4 -6 4
-8 10 -5 15 3 5 -5 12 -18 15 -13 4 -31 19 -40 35 -20 34 -21 44 -4 38 6 -3
36 -13 66 -23z m109 -144 c-13 -8 -34 -11 -60 -8 -68 9 -61 22 11 22 61 0 66
-2 49 -14z"/>
<path d="M2363 3155 c15 -14 35 -25 43 -25 24 0 54 19 54 35 0 18 -5 19 -29 3
-15 -9 -25 -9 -46 0 -42 19 -52 13 -22 -13z"/>
<path d="M4028 3160 c-13 -43 -9 -90 7 -97 21 -7 30 3 17 19 -6 8 -12 34 -14
58 -2 38 -4 41 -10 20z"/>
<path d="M3783 3150 c-13 -5 -23 -12 -23 -15 0 -9 93 6 105 16 12 12 -53 11
-82 -1z"/>
<path d="M4080 3060 c0 -5 5 -10 10 -10 6 0 10 -13 10 -29 0 -62 -74 -87 -137
-46 -18 12 -21 20 -14 38 5 12 14 21 20 20 17 -4 13 14 -4 21 -18 6 -35 -22
-35 -58 0 -30 39 -63 86 -72 38 -7 88 22 99 57 10 31 -3 89 -20 89 -8 0 -15
-4 -15 -10z"/>
<path d="M4197 2980 c28 -42 52 -55 32 -17 -15 28 -40 57 -50 57 -4 0 4 -18
18 -40z"/>
<path d="M4276 2951 c-10 -16 -36 -104 -36 -123 0 -43 18 -12 33 54 15 70 16
91 3 69z"/>
<path d="M4160 2895 c-14 -8 -52 -15 -85 -15 -41 0 -83 -10 -134 -30 -49 -19
-83 -27 -102 -23 -17 3 -35 0 -44 -7 -17 -14 -21 -35 -5 -25 6 3 15 -6 21 -21
21 -57 79 -140 109 -158 41 -24 118 -24 158 -1 39 24 69 78 97 179 13 44 26
89 30 99 9 21 -10 22 -45 2z m-16 -89 c-12 -35 -23 -47 -62 -66 -67 -34 -137
-37 -186 -8 -21 13 -46 34 -55 47 -15 23 -14 23 6 17 13 -4 47 4 89 20 59 23
195 46 216 37 4 -2 0 -23 -8 -47z m-224 -100 c0 -2 -9 -2 -20 1 -11 3 -20 9
-20 15 0 5 9 4 20 -2 11 -6 20 -12 20 -14z m151 -57 c-27 -22 -112 -26 -129
-6 -8 9 2 11 45 9 39 -3 53 -1 48 7 -4 8 2 10 19 7 15 -3 26 0 26 6 0 6 3 8 8
4 4 -4 -4 -16 -17 -27z"/>
<path d="M3980 2540 c0 -24 72 -40 85 -19 9 14 7 15 -42 23 -26 4 -43 2 -43
-4z"/>
<path d="M3570 2495 c0 -2 7 -8 15 -15 12 -10 15 -10 15 2 0 8 -7 15 -15 15
-8 0 -15 -1 -15 -2z"/>
<path d="M3640 2451 c0 -7 -5 -9 -12 -5 -7 5 -8 3 -3 -5 5 -9 10 -10 18 -2 6
6 8 14 4 18 -4 3 -7 1 -7 -6z"/>
<path d="M3660 2431 c0 -17 19 -22 37 -11 17 11 17 11 1 6 -10 -3 -18 -1 -18
4 0 6 -4 10 -10 10 -5 0 -10 -4 -10 -9z"/>
<path d="M1108 2839 c-21 -11 -38 -24 -38 -29 0 -12 3 -12 34 0 14 5 26 6 26
2 -1 -27 -29 -94 -45 -106 -11 -8 -17 -18 -13 -22 4 -4 55 -11 113 -15 116 -9
181 -30 171 -54 -9 -24 29 -55 69 -55 38 0 103 28 124 54 33 39 -35 96 -91 77
-28 -10 -33 -8 -66 28 -37 38 -113 94 -119 87 -2 -2 27 -33 64 -69 63 -62 67
-67 51 -83 -15 -15 -18 -15 -38 4 -27 25 -138 62 -186 62 -33 0 -36 2 -29 23
4 12 9 36 12 54 4 27 10 32 41 38 26 5 32 9 21 16 -22 14 -61 10 -101 -12z
m420 -181 c20 -20 14 -37 -18 -53 -37 -19 -130 -21 -130 -2 0 44 117 86 148
55z"/>
<path d="M780 2813 c1 -8 4 -13 48 -68 30 -38 40 -25 12 20 -20 33 -60 65 -60
48z"/>
<path d="M1404 2733 c9 -17 21 -35 27 -39 13 -8 -1 21 -26 51 -15 19 -15 18
-1 -12z"/>
<path d="M910 2696 c0 -31 -32 -70 -70 -86 -53 -22 -47 -86 13 -124 29 -18 30
2 2 39 -27 34 -27 36 -10 55 10 11 26 22 36 25 34 11 69 115 39 115 -5 0 -10
-11 -10 -24z"/>
<path d="M778 2663 c17 -2 47 -2 65 0 17 2 3 4 -33 4 -36 0 -50 -2 -32 -4z"/>
<path d="M1130 2650 c-18 -6 -9 -8 34 -9 33 -1 57 1 55 3 -10 9 -67 12 -89 6z"/>
<path d="M970 2546 c0 -19 -6 -25 -27 -28 -39 -4 -31 -22 11 -26 29 -2 34 1
39 25 3 15 3 33 0 40 -8 22 -23 15 -23 -11z"/>
<path d="M1610 2505 c-13 -33 -13 -38 0 -30 18 11 31 43 20 50 -6 3 -15 -6
-20 -20z"/>
<path d="M863 2446 c-6 -7 -30 -16 -54 -20 -24 -4 -49 -12 -56 -18 -15 -12
-17 -48 -3 -48 6 0 10 6 10 14 0 15 4 17 78 36 31 8 42 16 42 30 0 23 -1 24
-17 6z"/>
<path d="M1120 2430 c9 -17 6 -20 -27 -29 -21 -6 -74 -13 -118 -16 -44 -4
-101 -11 -127 -17 -50 -10 -65 -28 -24 -28 13 0 28 -6 34 -12 10 -13 12 -18
12 -39 0 -5 5 -7 12 -3 8 5 9 2 5 -9 -3 -9 -2 -19 3 -22 6 -4 10 0 10 7 0 10
2 10 9 -1 5 -7 6 -22 4 -32 -7 -27 15 -76 44 -99 67 -52 190 47 224 181 9 33
17 48 26 45 26 -10 12 18 -27 56 -45 42 -78 52 -60 18z m51 -47 c0 -5 2 -16 4
-25 2 -10 -2 -16 -8 -15 -6 1 -11 -3 -12 -10 0 -6 -4 -15 -9 -20 -5 -5 -6 -3
-2 5 4 6 3 12 -2 12 -15 0 -33 -26 -24 -35 4 -5 2 -5 -5 -1 -12 7 -63 -12 -63
-24 0 -3 -30 -6 -67 -6 -65 1 -68 2 -90 35 -12 18 -20 37 -18 41 3 5 51 11
107 15 57 4 119 13 138 20 44 16 50 17 51 8z m-204 -139 c-3 -3 -12 -4 -19 -1
-8 3 -5 6 6 6 11 1 17 -2 13 -5z m78 -58 c13 13 30 24 37 24 23 -1 -55 -60
-79 -60 -12 0 -29 10 -37 22 -25 36 -19 41 20 14 l35 -24 24 24z"/>
<path d="M970 2075 c0 -13 28 -35 45 -35 9 0 -28 49 -37 50 -5 0 -8 -7 -8 -15z"/>
<path d="M2719 2062 c12 -23 31 -25 86 -13 29 7 28 7 -15 13 -25 4 -54 10 -64
14 -16 6 -17 4 -7 -14z"/>
<path d="M2730 1998 c0 -4 13 -34 29 -68 32 -68 31 -93 -9 -119 -22 -15 -23
-15 -12 6 25 47 11 55 -18 11 -34 -52 -61 -72 -106 -82 -47 -10 -158 12 -195
40 -21 15 -40 22 -55 18 -12 -3 -32 0 -44 6 -19 10 -21 17 -15 48 4 20 16 54
27 75 17 35 18 39 3 33 -9 -3 -18 -6 -21 -6 -12 0 -44 -85 -44 -119 0 -45 26
-71 71 -71 15 0 48 -10 75 -22 33 -15 78 -24 134 -28 l85 -5 -59 -22 -59 -22
-76 24 c-87 28 -118 30 -181 11 -47 -14 -65 -42 -37 -58 9 -4 34 -41 56 -81
70 -127 139 -180 252 -193 107 -12 176 30 222 135 11 26 35 68 54 94 39 56 38
96 -3 124 -25 16 -91 15 -139 -3 -11 -4 -4 5 16 19 21 14 46 28 57 31 11 4 32
16 46 27 46 36 32 122 -28 178 -14 14 -26 22 -26 19z m56 -303 c18 -15 17 -16
-12 -10 -23 4 -46 -3 -97 -29 -96 -51 -124 -53 -237 -17 -52 16 -111 32 -130
34 -30 3 -28 4 12 5 25 1 75 -7 110 -18 82 -26 90 -25 186 9 72 26 103 35 138
40 5 0 19 -6 30 -14z m-3 -41 c13 -5 12 -11 -6 -39 -12 -19 -28 -34 -35 -35
-7 0 -10 -5 -6 -12 5 -7 2 -9 -9 -5 -9 3 -18 0 -21 -9 -3 -8 -9 -14 -13 -13
-20 3 -44 -2 -40 -8 3 -5 -30 -8 -73 -8 -43 0 -73 3 -67 7 7 4 -6 8 -28 8 -22
0 -64 11 -94 25 -36 17 -50 20 -41 10 11 -13 10 -14 -3 -9 -9 3 -17 15 -19 27
-2 12 -9 21 -15 20 -6 -1 -9 6 -6 17 7 27 30 25 118 -10 126 -50 187 -49 260
5 45 33 69 40 98 29z m-316 -130 c-3 -3 -12 -4 -19 -1 -8 3 -5 6 6 6 11 1 17
-2 13 -5z m52 -81 c19 -13 28 -14 43 -4 13 8 24 9 39 1 36 -20 10 -33 -56 -27
-66 6 -118 24 -109 38 9 15 58 10 83 -8z"/>
<path d="M2870 1794 c0 -5 5 -15 11 -21 7 -7 18 -33 26 -60 l13 -48 -4 49 c-2
32 -11 55 -25 69 -12 12 -21 17 -21 11z"/>
<path d="M2201 1754 c-11 -15 -18 -31 -14 -37 6 -10 53 39 53 56 0 15 -19 6
-39 -19z"/>
<path d="M2291 1474 c-1 -21 55 -94 90 -118 39 -27 109 -45 109 -28 0 5 -24
19 -53 31 -55 23 -99 57 -129 101 -9 14 -17 20 -17 14z"/>
<path d="M2747 1394 c-10 -13 -24 -24 -32 -24 -8 0 -15 -4 -15 -10 0 -16 26
-12 50 8 12 10 21 25 19 34 -3 13 -7 12 -22 -8z"/>
<path d="M2340 1190 c44 -81 151 -127 226 -95 45 18 74 43 74 61 0 10 -9 8
-34 -7 -55 -32 -126 -36 -181 -9 -25 12 -53 33 -62 46 -19 29 -38 32 -23 4z"/>
<path d="M2391 857 c-1 -19 3 -26 11 -21 8 5 9 2 5 -10 -4 -11 -3 -15 4 -10 7
4 9 0 5 -12 -7 -24 8 -53 17 -31 3 8 -5 36 -18 63 -21 44 -23 46 -24 21z"/>
<path d="M3875 1749 c-4 -6 -3 -15 3 -21 6 -6 11 -4 15 6 7 18 -9 31 -18 15z"/>
<path d="M3875 1600 c-7 -12 2 -30 16 -30 5 0 9 9 9 20 0 21 -15 27 -25 10z"/>
<path d="M3906 1501 c-4 -7 -5 -15 -2 -18 9 -9 19 4 14 18 -4 11 -6 11 -12 0z"/>
<path d="M1085 1400 c-4 -6 -3 -16 3 -22 6 -6 12 -6 17 2 4 6 3 16 -3 22 -6 6
-12 6 -17 -2z"/>
<path d="M1067 1284 c-8 -8 3 -34 14 -34 5 0 9 9 9 20 0 19 -11 26 -23 14z"/>
<path d="M1730 1025 c0 -15 4 -24 10 -20 6 3 10 12 10 20 0 8 -4 17 -10 20 -6
4 -10 -5 -10 -20z"/>
<path d="M1730 880 c0 -19 3 -21 12 -12 9 9 9 15 0 24 -9 9 -12 7 -12 -12z"/>
<path d="M1146 4423 c76 -111 115 -167 147 -208 14 -19 109 -160 128 -192 23
-36 47 -49 55 -28 5 13 -66 112 -233 325 -24 30 -46 60 -51 65 -51 70 -125
165 -129 165 -2 0 35 -57 83 -127z"/>
<path d="M1520 4545 c0 -3 21 -55 46 -115 27 -66 52 -110 60 -110 24 0 16 26
-42 130 -52 91 -64 110 -64 95z"/>
<path d="M3350 4413 c-24 -49 -43 -94 -43 -100 0 -7 -4 -13 -7 -13 -11 0 -40
-63 -34 -72 3 -4 11 -8 18 -8 15 0 39 47 31 61 -4 5 -2 9 3 9 9 0 23 34 27 65
1 6 6 19 10 30 26 63 44 115 41 115 -2 0 -22 -39 -46 -87z"/>
<path d="M890 4156 c41 -42 79 -75 85 -73 29 10 8 37 -72 90 l-88 59 75 -76z"/>
<path d="M4728 3618 c-65 -34 -118 -67 -118 -74 0 -24 20 -25 52 -2 17 13 60
43 94 68 34 25 70 50 80 57 43 27 2 9 -108 -49z"/>
<path d="M4610 3163 c-58 -4 -81 -16 -64 -33 9 -9 108 5 239 33 24 5 -96 5
-175 0z"/>
<path d="M4447 2783 c-19 -18 0 -34 66 -54 39 -12 91 -28 115 -35 72 -23 61
-15 -57 41 -129 62 -116 57 -124 48z"/>
</g>
</svg>
